SplineFontDB: 1.0
FontName: Tuffy_Regular
FullName: Tuffy Regular
FamilyName: Tuffy
Weight: Regular
Copyright: Created by Thatcher Ulrich (http://tulrich.com) with FontForge 1.0 (http://fontforge.sf.net)\n\nThis font, including hint instructions, has been donated to the Public Domain.  Do whatever you want with it.\n
Comments: 2004-9-1: Created.
Version: 001.000
ItalicAngle: 0
UnderlinePosition: -100
UnderlineWidth: 50
Ascent: 780
Descent: 220
XUID: [1021 745 1046372284 1638912]
FSType: 0
PfmFamily: 33
TTFWeight: 500
TTFWidth: 5
Panose: 2 11 6 3 6 1 0 0 0 0
LineGap: 90
VLineGap: 0
OS2WinAscent: 0
OS2WinAOffset: 1
OS2WinDescent: 0
OS2WinDOffset: 1
HheadAscent: 0
HheadAOffset: 1
HheadDescent: 0
HheadDOffset: 1
ScriptLang: 2
 1 latn 1 dflt 
 1 DFLT 1 dflt 
TtfTable: cvt  4
!$MDh
EndTtf
LangName: 1033 "" "" "" "" "" "" "" "" "" "Thatcher Ulrich" "" "http://tulrich.com+AAoA" "http://tulrich.com+AAoA" "Public Domain+AAoA" 
Encoding: iso8859_1
UnicodeInterp: none
DisplaySize: -36
AntiAlias: 1
FitToEm: 1
WinInfo: 48 16 7
BeginPrivate: 6
BlueValues 31 [-16 2 480 496 680 712 729 731]
OtherBlues 0 
StdHW 4 [86]
StdVW 5 [90]

StemSnapH 5 [66]

StemSnapV 4 [70]
EndPrivate
Grid
-20 732 m 2
 776 732 l 0
-22 484 m 2
 774 484 l 0
480 830 m 25
 480 -16 l 25
562 832 m 25
 562 -14 l 25
-24 350 m 2
 772 350 l 0
-22 700 m 2
 774 700 l 0
-28 -14 m 2
 768 -14 l 0
56 832 m 25
 56 -14 l 25
-22 682 m 2
 774 682 l 0
EndSplineSet
TeXData: 1 10485760 0 315621 157810 105207 456131 1048576 105207 783286 444596 497025 792723 393216 433062 380633 303038 157286 324010 404750 52429 2506097 1059062 262144
BeginChars: 256 192
StartChar: .notdef
Encoding: 0 0 0
Width: -32768
Flags: W
HStem: 201 56<268 302>
DStem: 126 554 108 658 192 471 198 539 438 658 428 558 357 539 369 475
Fore
126 554 m 17
 111 524 113 490 96 466 c 1
 84.6923 450.385 82.0828 439.988 82.0828 427.629 c 0
 82.0828 325.635 162.801 257 284 257 c 0
 412.563 257 477.806 364.376 477.806 438 c 0
 477.806 447.54 474.981 456.981 465 470 c 1
 447 494 444 526 428 558 c 9
 369 475 l 17
 351.978 478.83 324.452 480.668 295.439 480.668 c 0
 256.276 480.668 214.403 477.319 192 471 c 9
 126 554 l 17
108 658 m 9
 198 539 l 17
 223.614 546.589 248.554 549.904 273.459 549.904 c 0
 301.058 549.904 328.614 545.834 357 539 c 9
 438 658 l 17
 460 612 464 567 489 532 c 1
 520 489 546 448 546 396 c 0
 546 338 436 201 285 201 c 0
 123 201 13 336 13 393 c 0
 13 449 37 490 67 532 c 1
 90 566 88 614 108 658 c 9
EndSplineSet
EndChar
StartChar: exclam
Encoding: 33 33 1
Width: 173
Flags: W
HStem: -12 138<86 98> 662 20G<38 134>
VStem: 38 96<208 682>
Fore
17 57 m 0
 17 95 48 126 86 126 c 0
 124 126 155 95 155 57 c 0
 155 19 124 -12 86 -12 c 0
 48 -12 17 19 17 57 c 0
134 208 m 1
 38 208 l 1
 38 682 l 1
 134 682 l 1
 134 208 l 1
EndSplineSet
EndChar
StartChar: quotedbl
Encoding: 34 34 2
Width: 346
Flags: W
VStem: 26 96<492 725> 222 96<490 723>
Fore
222 490 m 1
 222 723 l 1
 318 723 l 1
 318 490 l 1
 222 490 l 1
26 492 m 1
 26 725 l 1
 122 725 l 1
 122 492 l 1
 26 492 l 1
EndSplineSet
EndChar
StartChar: numbersign
Encoding: 35 35 3
Width: 686
Flags: W
HStem: 175 96<27 177 273 407 503 659> 399 96<27 177 273 407 503 659>
VStem: 177 96<25 175 271 399 495 657> 407 96<25 175 271 399 495 657>
Fore
407 271 m 0
 407 399 l 0
 273 399 l 0
 273 271 l 0
 407 271 l 0
503 175 m 0
 503 25 l 1
 407 25 l 1
 407 175 l 0
 273 175 l 0
 273 25 l 1
 177 25 l 1
 177 175 l 0
 27 175 l 1
 27 271 l 1
 177 271 l 0
 177 399 l 0
 27 399 l 1
 27 495 l 1
 177 495 l 0
 177 657 l 1
 273 657 l 1
 273 495 l 0
 407 495 l 0
 407 657 l 1
 503 657 l 1
 503 495 l 0
 659 495 l 1
 659 399 l 1
 503 399 l 0
 503 271 l 0
 659 271 l 1
 659 175 l 1
 503 175 l 0
EndSplineSet
KernsSLIF: 36 -26 0 0
EndChar
StartChar: dollar
Encoding: 36 36 4
Width: 392
Flags: W
HStem: 0 172<189 238> 307 82<175.352 207> 521 161<142 207>
VStem: 14 94<447 465> 142 96<0 85 597 682> 274 96<229 244>
Fore
23 198 m 1
 113 231 l 1
 126 198 141 172 196 172 c 0
 247 172 274 207 274 241 c 1
 274 277 245 307 193 307 c 0
 90 307 14 380 14 458 c 0
 14 536 73 573 142 597 c 0
 142 682 l 9
 238 682 l 17
 238 602 l 0
 296 588 354 541 365 488 c 0
 278 461 l 1
 269 489 241 521 196 521 c 1
 145 521 108 495 108 454 c 1
 108 412 145 389 192 389 c 1
 299 389 370 329 370 242 c 0
 370 157 311 108 238 85 c 0
 238 0 l 9
 142 0 l 17
 142 85 l 0
 88 102 38 138 23 198 c 1
EndSplineSet
EndChar
StartChar: percent
Encoding: 37 37 5
Width: 682
Flags: W
HStem: 64 74<525 543> 242 74<525 543> 379 74<131.016 144> 557 74<131.016 144>
VStem: 14 77<505 513> 191 79<505 513> 406 77<179.405 193> 583 79<179.405 193>
DStem: 439 618 553 618 102 64 216 64
Fore
483 190 m 0
 483 161 505 138 533 138 c 0
 561 138 583 161 583 190 c 0
 583 219 561 242 533 242 c 0
 505 242 483 219 483 190 c 0
406 190 m 0
 406 260 463 316 534 316 c 0
 605 316 662 260 662 190 c 0
 662 120 605 64 534 64 c 0
 463 64 406 120 406 190 c 0
91 505 m 0
 91 476 113 453 141 453 c 0
 169 453 191 476 191 505 c 0
 191 534 169 557 141 557 c 0
 113 557 91 534 91 505 c 0
14 505 m 0
 14 575 71 631 142 631 c 0
 213 631 270 575 270 505 c 0
 270 435 213 379 142 379 c 0
 71 379 14 435 14 505 c 0
216 64 m 1
 102 64 l 1
 439 618 l 0
 553 618 l 1
 216 64 l 1
EndSplineSet
EndChar
StartChar: ampersand
Encoding: 38 38 6
Width: 507
Flags: W
HStem: -14 95<218 224> 164 96<230 307 230 474> 338 97<211 300>
VStem: 19 96<202 211> 48 96<514.558 534>
Fore
280 556 m 17xe8
 269 585 254 603 213 603 c 1
 172 603 144 570 144 531 c 1xe8
 144 494 160 435 221 435 c 1
 300 435 l 1
 300 338 l 1
 223 338 l 1
 164 338 115 266 115 203 c 1
 115 202.332 114.981 201.663 114.981 200.992 c 0
 114.981 149.416 152.848 88.8973 218 81 c 1
 220.216 81 222.375 80.845 224.48 80.845 c 0
 283.166 80.845 299.277 120.593 307 165 c 1
 230 164 l 1
 230 260 l 1
 474 260 l 1
 474 164 l 1
 403 164 l 1
 390 78 342 -14 218 -14 c 1
 107.818 -14 18.9271 58.5853 18.9271 195.187 c 0
 18.9271 197.441 19 199.712 19 202 c 1xf0
 19 284 60 388 146 388 c 1
 78 388 48 476 48 531 c 0
 48 621.794 112.206 699.018 213.96 699.018 c 0
 294.955 699.018 336.287 658.402 360 609 c 9
 280 556 l 17xe8
EndSplineSet
EndChar
StartChar: quotesingle
Encoding: 39 39 7
Width: 150
Flags: W
VStem: 26 96<492 725>
Fore
26 492 m 1
 26 725 l 1
 122 725 l 1
 122 492 l 1
 26 492 l 1
EndSplineSet
EndChar
StartChar: parenleft
Encoding: 40 40 8
Width: 258
Flags: MW
Fore
126 0 m 1
 48.626 118.097 14 234.62 14 366 c 0
 15 487 52 608 126 724 c 1
 234 724 l 1
 148.493 599.346 109.983 487.089 109.983 361.771 c 0
 109.983 239.226 152.932 118.635 234 0 c 1
 126 0 l 1
EndSplineSet
EndChar
StartChar: parenright
Encoding: 41 41 9
Width: 252
Flags: MW
Fore
120 0 m 1
 12 0 l 1
 93.1533 118.308 136.067 238.528 136.067 360.659 c 0
 136.067 363.439 136 366.219 136 369 c 1
 136 485 94 604 12 724 c 1
 120 724 l 1
 194 608 232 487 232 366 c 1
 232 364.356 232.02 362.711 232.02 361.067 c 0
 232.02 237.713 195 114.474 120 0 c 1
EndSplineSet
EndChar
StartChar: asterisk
Encoding: 42 42 10
Width: 428
Flags: W
HStem: 271 79<27 148 284 402>
DStem: 87 452 156 492 146 350 215 391 148 271 217 232 92 164 166 129 217 232 286 270 273 136 342 177 269 494 341 455 215 391 284 350
Fore
27 271 m 1
 27 350 l 1
 146 350 l 1
 87 452 l 1
 156 492 l 1
 215 391 l 1
 269 494 l 1
 341 455 l 1
 284 350 l 1
 402 350 l 1
 402 270 l 1
 286 270 l 1
 342 177 l 1
 273 136 l 1
 217 232 l 1
 166 129 l 1
 92 164 l 1
 148 271 l 1
 27 271 l 1
EndSplineSet
EndChar
StartChar: plus
Encoding: 43 43 11
Width: 420
Flags: W
HStem: 254 96<26 161 259 394> 461 20G<159 259>
VStem: 161 100<123 254 350 481>
Fore
26 350 m 1
 26 350 l 1
 159 350 l 1
 159 481 l 1
 259 481 l 1
 259 350 l 1
 394 350 l 1
 394 254 l 1
 261 254 l 1
 261 123 l 1
 161 123 l 1
 161 254 l 1
 26 254 l 1
 26 350 l 1
EndSplineSet
EndChar
StartChar: comma
Encoding: 44 44 12
Width: 180
Flags: W
DStem: 80 0 155 45 38 -96 101 -96
Fore
155 45 m 1
 101 -96 l 1
 38 -96 l 1
 80 0 l 1
 48 6 26 26 26 60 c 1
 26 96 46 124 88 124 c 1
 136 124 155 90 155 45 c 1
EndSplineSet
EndChar
StartChar: hyphen
Encoding: 45 45 13
Width: 428
Flags: W
HStem: 254 96<26 401>
Fore
26 350 m 1
 26 350 l 1
 401 350 l 1
 401 254 l 1
 26 254 l 1
 26 350 l 1
EndSplineSet
EndChar
StartChar: period
Encoding: 46 46 14
Width: 178
Flags: MW
Back
26 65 m 4
 26 100.88 55.12 130 91 130 c 4
 126.88 130 156 100.88 156 65 c 4
 156 29.12 126.88 0 91 0 c 4
 55.12 0 26 29.12 26 65 c 4
EndSplineSet
Fore
23 65 m 0
 23 101 52 130 88 130 c 0
 124 130 153 101 153 65 c 0
 153 29 124 0 88 0 c 0
 52 0 23 29 23 65 c 0
EndSplineSet
EndChar
StartChar: slash
Encoding: 47 47 15
Width: 479
Flags: MW
DStem: 346 723 472 723 10 0 136 0
Fore
136 0 m 1
 10 0 l 1
 346 723 l 0
 472 723 l 1
 136 0 l 1
EndSplineSet
EndChar
StartChar: zero
Encoding: 48 48 16
Width: 473
Flags: W
HStem: -14 96<234 240> 603 96<238 240>
VStem: 14 96<349 371> 358 96<349 371>
Fore
14 349 m 1
 14 509 88 699 238 699 c 1
 388 699 454 509 454 349 c 1
 454 189 384 -14 234 -14 c 1
 84 -14 14 189 14 349 c 1
110 349 m 1
 110 273 130 82 234 82 c 1
 338 82 358 274 358 349 c 1
 358 424 342 603 238 603 c 1
 134 603 110 424 110 349 c 1
EndSplineSet
EndChar
StartChar: one
Encoding: 49 49 17
Width: 271
Flags: W
HStem: 0 21G<150 246> 662 20G<150 246>
VStem: 150 96<0 682>
Fore
76 488 m 1
 15 562 l 1
 150 682 l 1
 246 682 l 1
 246 0 l 1
 150 0 l 1
 150 552 l 1
 76 488 l 1
EndSplineSet
EndChar
StartChar: two
Encoding: 50 50 18
Width: 469
Flags: W
HStem: 0 96<167 440> 603 97<221 235>
VStem: 324 106<459 481>
Back
14 472 m 4
 14 597.856 107.184 700 222 700 c 4
 336.816 700 430 597.856 430 472 c 4
 430 346.144 336.816 244 222 244 c 4
 107.184 244 14 346.144 14 472 c 4
120 472 m 4
 120 544.864 165.696 604 222 604 c 4
 278.304 604 324 544.864 324 472 c 4
 324 399.136 278.304 340 222 340 c 4
 165.696 340 120 399.136 120 472 c 4
EndSplineSet
Fore
122 504 m 9
 26 546 l 17
 47 626 126 700 221 700 c 1
 314 700 430 627 430 459 c 1
 430 346 322 250 212 141 c 1
 167 96 l 1
 440 96 l 17
 440 0 l 1
 26 0 l 1
 26 97 l 1
 132 203 l 17
 212 284 324 362 324 459 c 0
 324 553 277 603 221 603 c 1
 171 603 136 562 122 504 c 9
EndSplineSet
EndChar
StartChar: three
Encoding: 51 51 19
Width: 459
Flags: W
HStem: -14 96<219 225> 308 94<221 238.266> 606 95<216 225>
VStem: 332 96<508 515> 341 96<189 195>
Back
12 504 m 4
 12 618.816 105.184 700 220 700 c 4
 334.816 700 428 618.816 428 504 c 4
 428 389.184 334.816 308 220 308 c 4
 105.184 308 12 389.184 12 504 c 4
106 504 m 4
 106 566.928 157.072 606 220 606 c 4
 282.928 606 334 566.928 334 504 c 4
 334 441.072 282.928 402 220 402 c 4
 157.072 402 106 441.072 106 504 c 4
220 504 m 29
11 194 m 4
 11 308.816 104.184 402 219 402 c 4
 333.816 402 427 308.816 427 194 c 4
 427 79.1836 333.816 -14 219 -14 c 4
 104.184 -14 11 79.1836 11 194 c 4
105 194 m 4
 105 256.928 156.072 308 219 308 c 4
 281.928 308 333 256.928 333 194 c 4
 333 131.072 281.928 80 219 80 c 4
 156.072 80 105 131.072 105 194 c 4
219 194 m 29
EndSplineSet
Fore
16 118 m 9xe8
 106 150 l 17
 130 98 181 82 219 82 c 1
 284 82 341 128 341 189 c 1xe8
 341 260 295 308 221 308 c 1
 212.818 308 206.421 308.893 200.187 308.893 c 0
 194.992 308.893 189.909 308.273 184 306 c 1
 184 404 l 1
 190.5 402 195.75 401.5 201.375 401.5 c 0
 207 401.5 213 402 221 402 c 1
 289 402 332 446 332 508 c 1
 332 563 287 606 220 606 c 1
 218.955 606 217.89 606.046 216.809 606.046 c 0
 182.715 606.046 131.508 590.524 116 544 c 9
 32 592 l 17
 68 666 142 701 220 701 c 1
 338 701 428 613 428 508 c 1xf0
 428 417 379 375 354 353 c 1
 382 329 437 283 437 189 c 1
 437 65 341 -14 219 -14 c 1
 146 -14 52 34 16 118 c 9xe8
EndSplineSet
EndChar
StartChar: four
Encoding: 52 52 20
Width: 504
Flags: MW
HStem: 0 21G<285 381> 232 96<128 285 381 477>
VStem: 285 96<0 232 328 682>
DStem: 89 682 188 682 22 232 128 328
Fore
381 0 m 1
 285 0 l 1
 285 232 l 1
 22 232 l 9
 89 682 l 1
 188 682 l 1
 128 328 l 1
 285 328 l 1
 285 682 l 1
 381 682 l 1
 381 327 l 9
 477 327 l 17
 477 232 l 1
 381 232 l 1
 381 0 l 1
EndSplineSet
EndChar
StartChar: five
Encoding: 53 53 21
Width: 457
Flags: W
HStem: -14 96<226 232> 586 96<85 398>
VStem: 340 95<193 211>
DStem: 85 682 164 586 24 358 136 439
Back
55 530 m 0
 55 623.84 132.056 700 227 700 c 0
 321.944 700 399 623.84 399 530 c 0
 399 436.16 321.944 360 227 360 c 0
 132.056 360 55 436.16 55 530 c 0
18 194 m 0
 18 308.816 111.184 402 226 402 c 0
 340.816 402 434 308.816 434 194 c 0
 434 79.184 340.816 -14 226 -14 c 0
 111.184 -14 18 79.184 18 194 c 0
112 194 m 0
 112 256.928 163.072 308 226 308 c 0
 288.928 308 340 256.928 340 194 c 0
 340 131.072 288.928 80 226 80 c 0
 163.072 80 112 131.072 112 194 c 0
226 194 m 25
EndSplineSet
Fore
220 327 m 1
 24 358 l 9
 85 682 l 1
 398 682 l 1
 398 586 l 1
 164 586 l 1
 136 439 l 1
 252 420 l 1
 338 407 435 331 435 206 c 1
 435 98 363 -14 226 -14 c 1
 128 -14 35 51 7 154 c 9
 100 179 l 17
 122 134 150 82 226 82 c 1
 302 82 340 134 340 207 c 1
 340 272 289 318 220 327 c 1
EndSplineSet
EndChar
StartChar: six
Encoding: 54 54 22
Width: 455
Flags: W
HStem: -14 97<221 227> 306 96<224 228>
VStem: 18 96<177 195> 339 96<191 195>
DStem: 260 710 347 669 94 408 199 400
Back
55 530 m 4
 55 623.84 132.056 700 227 700 c 4
 321.944 700 399 623.84 399 530 c 4
 399 436.16 321.944 360 227 360 c 4
 132.056 360 55 436.16 55 530 c 4
18 194 m 4
 18 308.816 111.184 402 226 402 c 4
 340.816 402 434 308.816 434 194 c 4
 434 79.184 340.816 -14 226 -14 c 4
 111.184 -14 18 79.184 18 194 c 4
112 194 m 4
 112 256.928 163.072 308 226 308 c 4
 288.928 308 340 256.928 340 194 c 4
 340 131.072 288.928 80 226 80 c 4
 163.072 80 112 131.072 112 194 c 4
226 194 m 29
EndSplineSet
Fore
339 191 m 1
 339 257 286 306 224 306 c 1
 164 306 114 256 114 193 c 1
 114 128 168 83 225 83 c 1
 291 83 339 134 339 191 c 1
199 400 m 1
 208 401 213 402 224 402 c 1
 334 402 435 316 435 191 c 1
 435 86 353 -14 223 -14 c 1
 92 -14 18 96 18 192 c 1
 18 279 72 367 94 408 c 1
 260 710 l 9
 347 669 l 17
 199 400 l 1
EndSplineSet
EndChar
StartChar: seven
Encoding: 55 55 23
Width: 498
Flags: MW
HStem: 585 97<27 342>
DStem: 342 585 481 682 116 0 221 0
Fore
227 682 m 1
 481 682 l 1
 221 0 l 1
 116 0 l 1
 342 585 l 1
 27 585 l 1
 27 682 l 1
 227 682 l 1
EndSplineSet
EndChar
StartChar: eight
Encoding: 56 56 24
Width: 470
Flags: W
HStem: -14 96<235 241> 308 94<237 241> 606 95<236 240>
VStem: 27 97<508 515> 348 96<508 515> 357 96<189 195>
Back
12 504 m 4
 12 618.816 105.184 700 220 700 c 4
 334.816 700 428 618.816 428 504 c 4
 428 389.184 334.816 308 220 308 c 4
 105.184 308 12 389.184 12 504 c 4
106 504 m 4
 106 566.928 157.072 606 220 606 c 4
 282.928 606 334 566.928 334 504 c 4
 334 441.072 282.928 402 220 402 c 4
 157.072 402 106 441.072 106 504 c 4
220 504 m 29
11 194 m 4
 11 308.816 104.184 402 219 402 c 4
 333.816 402 427 308.816 427 194 c 4
 427 79.1836 333.816 -14 219 -14 c 4
 104.184 -14 11 79.1836 11 194 c 4
105 194 m 4
 105 256.928 156.072 308 219 308 c 4
 281.928 308 333 256.928 333 194 c 4
 333 131.072 281.928 80 219 80 c 4
 156.072 80 105 131.072 105 194 c 4
219 194 m 29
EndSplineSet
Fore
113 192 m 1xf4
 113 128 166 82 235 82 c 1
 300 82 357 128 357 189 c 1
 357 260 311 308 237 308 c 1
 171.552 308 112.987 257.85 112.987 193.628 c 0
 112.987 193.086 113 192.544 113 192 c 1xf4
124 508 m 1
 124 447 165 402 237 402 c 1
 305 402 348 446 348 508 c 1xf8
 348 563 303 606 236 606 c 1
 166 606 124 558 124 508 c 1
236 701 m 1
 354 701 444 613 444 508 c 1xf8
 444 417 395 375 370 353 c 1
 398 329 453 283 453 189 c 1xf4
 453 65 357 -14 235 -14 c 1
 112 -14 16 70 16 192 c 1
 16 282 67 320 101 353 c 1
 72 380 27 419 27 508 c 1
 27 613 119 701 236 701 c 1
EndSplineSet
EndChar
StartChar: nine
Encoding: 57 57 25
Width: 457
Flags: W
HStem: 284 96<227 241> 603 97<210.116 241>
VStem: 16 96<479.206 498> 337 96<464 497>
Back
101.92 493.899 m 5
 101.92 433.47 148.88 380.02 216 380.02 c 5
 280.88 380.02 325.96 433.47 325.96 488.569 c 5
 325.96 557.47 273.88 605.12 212.88 605.12 c 5
 154.88 605.12 101.92 559.47 101.92 493.899 c 5
334.56 335.39 m 5
 306.88 297.47 254.88 284 216 284 c 5
 82.8799 284 5.2002 395.47 5.2002 493.01 c 5
 5.2002 608.47 97.8799 701.47 212.88 701.47 c 4
 355.88 701.47 431.883 577.719 436.375 445.47 c 4
 437.441 414.076 435.487 380.081 430.88 337.47 c 5
EndSplineSet
Fore
112 495 m 1
 112 429 165 380 227 380 c 1
 287 380 337 430 337 493 c 1
 337 558 283 603 226 603 c 1
 160 603 112 552 112 495 c 1
228 700 m 1
 359 700 433 590 433 494 c 1
 433.505 484.062 433.727 474.266 433.727 464.497 c 0
 433.727 416.269 428.326 368.704 425 308 c 1
 423 166 284 50 169 -18 c 9
 115 61 l 17
 200 116 329 188 329 296 c 9
 329 319 l 17
 310 300 274 284 227 284 c 1
 117 284 16 370 16 495 c 1
 16 600 98 700 228 700 c 1
EndSplineSet
EndChar
StartChar: colon
Encoding: 58 58 26
Width: 186
Flags: W
HStem: -14 127<82.8154 97> 317 127<82.8154 97>
Fore
31 49 m 0
 31 84 59 113 94 113 c 0
 129 113 157 84 157 49 c 0
 157 14 129 -14 94 -14 c 0
 59 -14 31 14 31 49 c 0
31 381 m 0
 31 416 59 444 94 444 c 0
 129 444 157 416 157 381 c 0
 157 346 129 317 94 317 c 0
 59 317 31 346 31 381 c 0
EndSplineSet
EndChar
StartChar: semicolon
Encoding: 59 59 27
Width: 181
Flags: W
HStem: 317 127<94 105>
DStem: 82 0 157 45 40 -96 103 -96
Fore
31 381 m 0
 31 416 59 444 94 444 c 0
 129 444 157 416 157 381 c 0
 157 346 129 317 94 317 c 0
 59 317 31 346 31 381 c 0
157 45 m 1
 103 -96 l 1
 40 -96 l 1
 82 0 l 1
 50 6 28 26 28 60 c 1
 28 96 48 124 90 124 c 1
 138 124 157 90 157 45 c 1
EndSplineSet
EndChar
StartChar: less
Encoding: 60 60 28
Width: 384
Flags: W
DStem: 10 352 122 351 247 36 365 36 247 662 365 662 10 352 122 351
Fore
247 36 m 1
 10 352 l 1
 247 662 l 1
 365 662 l 1
 122 351 l 1
 365 36 l 1
 247 36 l 1
EndSplineSet
EndChar
StartChar: equal
Encoding: 61 61 29
Width: 425
Flags: W
HStem: 206 96<26 401> 398 96<26 401>
Fore
26 302 m 1
 26 302 l 1
 401 302 l 1
 401 206 l 1
 26 206 l 1
 26 302 l 1
26 494 m 1
 26 494 l 1
 401 494 l 1
 401 398 l 1
 26 398 l 1
 26 494 l 1
EndSplineSet
EndChar
StartChar: greater
Encoding: 62 62 30
Width: 388
Flags: W
DStem: 13 659 131 659 256 348 368 349 256 348 368 349 13 33 131 33
Fore
131 33 m 1
 13 33 l 1
 256 348 l 1
 13 659 l 1
 131 659 l 1
 368 349 l 1
 131 33 l 1
EndSplineSet
EndChar
StartChar: question
Encoding: 63 63 31
Width: 462
Flags: W
HStem: -14 127<217 229> 605 96<215 239>
VStem: 169 96<187 239.018> 344 96<512 524>
Back
124 512 m 0
 124 561.68 175.072 604 238 604 c 4
 300.928 604 352 561.68 352 512 c 0
 352 462.32 300.928 422 238 422 c 0
 175.072 422 124 462.32 124 512 c 0
24 512 m 0
 24 615.776 118.976 700 236 700 c 0
 353.024 700 448 615.776 448 512 c 0
 448 408.224 353.024 324 236 324 c 0
 118.976 324 24 408.224 24 512 c 0
EndSplineSet
Fore
154 49 m 0
 154 84 182 113 217 113 c 0
 252 113 280 84 280 49 c 0
 280 14 252 -14 217 -14 c 0
 182 -14 154 14 154 49 c 0
265 276 m 1
 265 187 l 1
 169 187 l 1
 169 208.333 169.444 225.556 169.444 239.037 c 0
 169.444 266 169 278 169 278 c 1
 169 391 344 425 344 512 c 1
 344 559 298 605 227 605 c 1
 153 605 115 557 115 505 c 1
 14 522 l 1
 26 624 112 700 224 701 c 1
 332 701 440 626 440 514 c 1
 440 369 265 334 265 276 c 1
EndSplineSet
EndChar
StartChar: at
Encoding: 64 64 32
Width: 746
Flags: W
HStem: -16 78<372 383> 182 78<372 383> 204 78<582 598> 424 78<372 383> 622 78<372 383>
VStem: 14 78<342 353> 212 78<342 353> 454 78<342 353> 652 78<342 353>
Back
517 342 m 4
 517 375.12 543.88 402 577 402 c 4
 610.12 402 637 375.12 637 342 c 4
 637 308.88 610.12 282 577 282 c 4
 543.88 282 517 308.88 517 342 c 4
439 342 m 0
 439 418.176 500.824 480 577 480 c 0
 653.176 480 715 418.176 715 342 c 0
 715 265.824 653.176 204 577 204 c 0
 500.824 204 439 265.824 439 342 c 0
275 342 m 0
 275 387 312 424 357 424 c 0
 402 424 439 387 439 342 c 0
 439 297 402 260 357 260 c 0
 312 260 275 297 275 342 c 0
77 342 m 0
 77 497 202 622 357 622 c 0
 512 622 637 497 637 342 c 0
 637 187 512 62 357 62 c 0
 202 62 77 187 77 342 c 0
-1 342 m 0
 -1 540 159 700 357 700 c 0
 555 700 715 540 715 342 c 0
 715 144 555 -16 357 -16 c 0
 159 -16 -1 144 -1 342 c 0
197 342 m 0
 197 430 269 502 357 502 c 0
 445 502 517 430 517 342 c 0
 517 254 445 182 357 182 c 0
 269 182 197 254 197 342 c 0
EndSplineSet
Fore
533 113 m 8xbf80
 582 52 l 0
 523 9 451 -16 372 -16 c 0
 174 -16 14 144 14 342 c 0
 14 540 174 700 372 700 c 0
 570 700 730 540 730 342 c 0
 730 260 660 204 596 204 c 0xbf80
 561 204 521 216 496 243 c 1
 468 205 422 182 372 182 c 0xdf80
 284 182 212 254 212 342 c 0
 212 430 284 502 372 502 c 0
 460 502 532 430 532 342 c 0
 532 300 568 282 593 282 c 0
 620 282 652 304 652 342 c 0
 652 497 527 622 372 622 c 0
 217 622 92 497 92 342 c 0
 92 187 217 62 372 62 c 0
 432 62 488 81 533 113 c 8xbf80
290 342 m 0
 290 297 327 260 372 260 c 0xdf80
 417 260 454 297 454 342 c 0
 454 387 417 424 372 424 c 0
 327 424 290 387 290 342 c 0
EndSplineSet
EndChar
StartChar: A
Encoding: 65 65 0
Width: 644
Flags: MW
HStem: 237 54<223 437>
DStem: 289 682 196 237 44 0 118 0
Fore
317 588 m 1
 223 291 l 1
 409 291 l 1
 317 588 l 1
437 237 m 0
 196 237 l 0
 118 0 l 0
 44 0 l 1
 289 682 l 0
 289 682 323.16 682 345 682 c 17
 590 0 l 1
 515 0 l 1
 437 237 l 0
EndSplineSet
KernsSLIF: 86 -100 0 0 84 -46 0 0
EndChar
StartChar: B
Encoding: 66 66 1
Width: 577
Flags: MW
HStem: 0 70<124 211> 329 70<124 171.156> 612 70<58 211>
VStem: 58 66<0 329 0 612> 408 65<524 529> 440 64<191 209>
Fore
124 329 m 1xf4
 124 70 l 1
 142.092 70 195.07 70.2568 211 70.7607 c 1
 414 70.7607 440 148 440 203 c 0
 440 262 408 328.292 211 328.292 c 1
 197.71 328.759 138.721 329 124 329 c 1xf4
124 612 m 1
 124 399 l 1
 142.088 399 195.075 396.83 211 398 c 1
 362 398 408 474 408 524 c 1xf8
 408 560 368 611.36 211 611.36 c 1
 196.115 611.78 141.142 612 124 612 c 1
58 682 m 0
 126 682 l 2
 120.4 682 187.839 682 211 682 c 0
 414 682 473 606.516 473 524 c 1xf8
 473 433 426 366 353 366 c 1
 482 366 504 283 504 200 c 1xf4
 504 111 504 0 211 0 c 1
 126 0 l 1
 58 0 l 1
 58 682 l 0
EndSplineSet
EndChar
StartChar: C
Encoding: 67 67 2
Width: 591
Flags: W
HStem: -14 70<325 342> 630 70<326 342>
VStem: 37 66<350 371>
Fore
549 105 m 0
 505 32 433 -14 325 -14 c 1
 119 -14 37 182 37 350 c 1
 37 500 118 700 326 700 c 0
 431 700 496 652 539 586 c 9
 510.92 573.91 467 555 467 555 c 0
 439 595 382 630 326 630 c 1
 193 630 103 462 103 350 c 1
 103 228 197 56 325 56 c 1
 388 56 455 94 484 147 c 9
 509.35 130.62 549 105 549 105 c 0
EndSplineSet
EndChar
StartChar: D
Encoding: 68 68 3
Width: 601
Flags: WO
HStem: 0 66<126 224> 616 66<56 233>
VStem: 56 70<0 616> 465 70<350 369>
Fore
465 350 m 5
 465 468 359 616 223 616 c 1
 211.966 617.149 137.628 616 126 616 c 1
 126 66 l 1
 223 66.6094 l 1
 359 66.6094 465 219 465 350 c 5
535 350 m 1
 536 148 392 0 223 0 c 0
 216.26 0 131.588 0 125 0 c 1
 56 0 l 1
 56 682 l 1
 223 682 l 1
 395 682 535 531 535 350 c 1
EndSplineSet
EndChar
StartChar: E
Encoding: 69 69 4
Width: 540
Flags: W
HStem: 0 66<126 485> 317 66<126 485> 616 66<56 485>
VStem: 56 70<0 317 0 616>
Fore
56 682 m 0
 485 682 l 1
 485 616 l 0
 126 616 l 4
 126 383 l 5
 485 383 l 1
 485 317 l 0
 126 317 l 4
 126 66 l 4
 485 66 l 0
 485 0 l 0
 56 0 l 1
 56 682 l 0
EndSplineSet
KernsSLIF: 82 19 0 0
EndChar
StartChar: F
Encoding: 70 70 5
Width: 541
Flags: MW
HStem: 317 67<126 485> 616 66<56 485>
VStem: 56 70<0 317 0 616>
Fore
56 682 m 1
 485 682 l 1
 485 616 l 29
 126 616 l 29
 126 384 l 1
 485 384 l 1
 485 317 l 25
 126 317 l 1
 126 0 l 1
 56 0 l 1
 56 682 l 1
EndSplineSet
EndChar
StartChar: G
Encoding: 71 71 6
Width: 649
Flags: W
HStem: -14 70<333 337> 243 70<303 508> 630 70<334 336>
VStem: 45 66<350 371>
Fore
552 111 m 1
 508 38 441 -14 333 -14 c 1
 127 -14 45 182 45 350 c 1
 45 500 126 700 334 700 c 0
 439 700 504 652 547 586 c 9
 516.97 570.4 470 546 470 546 c 0
 441 586 390 630 334 630 c 1
 201 630 111 462 111 350 c 1
 111 228 205 56 333 56 c 1
 396 56 460 122 497 170 c 0
 506.941 182.235 508.111 210.903 508.111 227.954 c 0
 508.111 233.201 508 238.294 508 243 c 1
 303 243 l 1
 303 313 l 5
 592 313 l 5
 592 243 l 1
 592 205 579 162 552 111 c 1
EndSplineSet
KernsSLIF: 84 -32 0 0
EndChar
StartChar: H
Encoding: 72 72 7
Width: 566
Flags: MW
HStem: 316 66<126 439>
VStem: 56 70<0 316 0 682> 439 70<0 682>
Fore
56 682 m 0
 126 682 l 1
 126 382 l 1
 439 382 l 1
 439 682 l 1
 509 682 l 1
 509 0 l 1
 439 0 l 1
 439 316 l 4
 126 316 l 5
 126 0 l 1
 56 0 l 1
 56 682 l 0
EndSplineSet
EndChar
StartChar: I
Encoding: 73 73 8
Width: 336
Flags: W
HStem: 0 70<56 280> 612 70<56 133 56 280>
VStem: 133 70<70 612>
Fore
56 0 m 1
 56 70 l 1
 133 70 l 1
 133 612 l 1
 56 612 l 1
 56 682 l 1
 280 682 l 1
 280 612 l 1
 203 612 l 1
 203 68 l 1
 280 68 l 1
 280 0 l 1
 56 0 l 1
EndSplineSet
EndChar
StartChar: J
Encoding: 74 74 9
Width: 593
Flags: W
HStem: -10 70<232 251> 612 70<249 356 249 519>
VStem: 356 66<250 612>
Fore
41 182 m 0
 101 205 l 1
 123 152 174 60 240 60 c 1
 327 60 356 141 356 250 c 1
 356 612 l 1
 249 612 l 1
 249 682 l 1
 519 682 l 1
 519 612 l 1
 422 612 l 1
 422 250 l 1
 422 81 357 -10 238 -10 c 1
 114 -10 59 135 41 182 c 0
EndSplineSet
EndChar
StartChar: K
Encoding: 75 75 10
Width: 552
Flags: MW
VStem: 56 70<0 302 0 682>
DStem: 126 302 174 350 405 0 490 0 405 682 490 682 126 397 174 350
Fore
56 682 m 0
 126 682 l 1
 126 397 l 1
 405 682 l 1
 490 682 l 1
 174 350 l 1
 490 0 l 1
 405 0 l 1
 126 302 l 1
 126 0 l 1
 56 0 l 1
 56 682 l 0
EndSplineSet
EndChar
StartChar: L
Encoding: 76 76 11
Width: 553
Flags: MW
HStem: 0 66<125 496>
VStem: 56 70<0 682>
Fore
56 682 m 1
 126 682 l 5
 126 66 l 5
 496 66 l 1
 496 0 l 1
 56 0 l 1
 56 682 l 1
EndSplineSet
EndChar
StartChar: M
Encoding: 77 77 1
Width: 686
Flags: MW
DStem: 88 682 146 567 31 0 101 0 146 567 180 682 298 154 347 231 513 682 543 567 347 231 392 154 543 567 601 682 588 0 658 0
Fore
31 0 m 5
 88 682 l 6
 180 682 l 5
 347 231 l 6
 513 682 l 5
 601 682 l 5
 658 0 l 5
 588 0 l 29
 543 567 l 5
 392 154 l 4
 298 154 l 5
 146 567 l 4
 101 0 l 5
 31 0 l 5
EndSplineSet
EndChar
StartChar: N
Encoding: 78 78 2
Width: 606
Flags: MW
VStem: 56 71<0 551> 478 70<144 682>
DStem: 127 551 128 682 480 0 478 144
Fore
56 0 m 1
 56 682 l 2
 128 682 l 1
 478 144 l 29
 478 682 l 1
 548 682 l 1
 548 0 l 0
 480 0 l 1
 127 551 l 0
 127 0 l 1
 56 0 l 1
EndSplineSet
EndChar
StartChar: O
Encoding: 79 79 3
Width: 626
Flags: W
HStem: -14 70<314 318> 630 70<315 317>
VStem: 44 66<350 371> 512 66<350 357>
Fore
512 350 m 1
 512 352.067 512.055 354.146 512.055 356.236 c 0
 512.055 467.411 439.657 630 315 630 c 5
 188 630 110 462 110 350 c 1
 110 228 184 56 314 56 c 1
 444 56 512 230 512 350 c 1
44 350 m 1
 44 500 114 700 315 700 c 1
 516 700 578 500 578 350 c 1
 578 180 518 -14 314 -14 c 1
 110 -14 44 182 44 350 c 1
EndSplineSet
KernsSLIF: 65 -46 0 0 84 -53 0 0
EndChar
StartChar: P
Encoding: 80 80 4
Width: 540
Flags: MW
HStem: 297 66<126 169.199> 616 66<126 163.035>
VStem: 56 70<0 297 0 616> 409 70<486 497>
Fore
126 363 m 1
 253 363 409 388 409 486 c 1
 409 578 258 616 126 616 c 1
 126 363 l 1
56 682 m 4
 126 682 l 1
 308 682 479 614 479 486 c 0
 479 324 295 297 126 297 c 1
 126 0 l 1
 56 0 l 1
 56 682 l 4
EndSplineSet
EndChar
StartChar: Q
Encoding: 81 81 5
Width: 643
Flags: W
HStem: -14 66<310 322> 634 66<297 323>
VStem: 42 70<350 371> 506 70<350 371>
DStem: 312 215 361 269 412 113 455 168 468 60 510 121 535 -14 589 39
Fore
506 350 m 1
 506 446 438 634 312 634 c 1
 182 634 112 460 112 350 c 1
 112 234 206 52 320 52 c 1
 352 52 391 87 412 113 c 1
 312 215 l 5
 361 269 l 1
 455 168 l 1
 473 204 506 296 506 350 c 1
42 350 m 1
 42 492 105 700 315 700 c 1
 517 700 576 478 576 350 c 1
 576 278 537 171 510 121 c 1
 589 39 l 1
 535 -14 l 1
 468 60 l 1
 429 23 394 -14 318 -14 c 1
 125 -14 42 184 42 350 c 1
EndSplineSet
EndChar
StartChar: R
Encoding: 82 82 6
Width: 546
Flags: MW
VStem: 56 70<0 315 0 612> 416 70<481.858 497>
DStem: 126 315 208 322 427 0 509 0
Fore
126 389 m 1
 231 388.972 l 0
 323 388.972 416 424.77 416 494 c 1
 416 562.182 328 611.519 228 611.519 c 1
 126 612 l 1
 126 389 l 1
56 682 m 0
 126 682 l 1
 227 682.109 l 1
 384 682 486 612.082 486 494 c 0
 486 370 318 322 208 322 c 1
 509 0 l 1
 427 0 l 1
 126 315 l 1
 126 0 l 1
 56 0 l 1
 56 682 l 0
EndSplineSet
EndChar
StartChar: S
Encoding: 83 83 7
Width: 557
Flags: W
HStem: -14 70<281 283> 630 70<264 283>
VStem: 58 66<500.91 516> 438 66<186 195>
Fore
41 136 m 1
 104 178 l 1
 146 112 216 56 281 56 c 1
 344 56 438 116 438 186 c 1
 438 230 344 306 249 334 c 0
 167 358 58 393 58 513 c 1
 58 629 170 700 270 700 c 1
 376 700 450 636 482 585 c 1
 421 550 l 1
 401 592 326 630 268 630 c 1
 214 630 124 580 124 513 c 1
 124 434 247 408 301 386 c 5
 371 362 504 312 504 186 c 1
 504 74 400 -14 281 -14 c 1
 182 -14 120 29 41 136 c 1
EndSplineSet
EndChar
StartChar: T
Encoding: 84 84 8
Width: 623
Flags: MW
HStem: 612 70<56 284 56 568>
VStem: 284 66<0 612>
Fore
56 682 m 0
 568 682 l 1
 568 612 l 4
 350 612 l 5
 350 0 l 1
 284 0 l 1
 284 612 l 5
 56 612 l 5
 56 682 l 0
EndSplineSet
KernsSLIF: 65 -52 0 0
EndChar
StartChar: U
Encoding: 85 85 9
Width: 609
Flags: HMW
VStem: 56 90<310 682> 451 90<0 682>
Fore
471 682 m 1
 541 682 l 1
 541 0 l 1
 471 0 l 1
 471 139 l 1
 471 109 404 -14 276 -14 c 1
 124 -14 56 146 56 310 c 1
 56 682 l 1
 126 682 l 1
 126 310 l 1
 126 198 192 52 276 52 c 5
 364 52 471 246 471 507 c 1
 471 682 l 1
EndSplineSet
EndChar
StartChar: V
Encoding: 86 86 10
Width: 604
Flags: MW
DStem: 35 682 110 682 244 0 293 75 476 682 549 682 293 75 342 0
Fore
476 682 m 1
 549 682 l 1
 342 0 l 1
 244 0 l 1
 35 682 l 5
 110 682 l 1
 293 75 l 1
 476 682 l 1
EndSplineSet
KernsSLIF: 65 -114 0 0 69 -33 0 0
EndChar
StartChar: W
Encoding: 87 87 11
Width: 704
Flags: MW
DStem: 36 682 106 682 93 0 151 115 303 528 352 451 151 115 185 0 352 451 397 528 518 0 548 115 593 682 663 682 548 115 606 0
Fore
36 682 m 1
 106 682 l 1
 151 115 l 0
 303 528 l 1
 397 528 l 0
 548 115 l 1
 593 682 l 25
 663 682 l 1
 606 0 l 1
 518 0 l 1
 352 451 l 2
 185 0 l 1
 93 0 l 2
 36 682 l 1
EndSplineSet
KernsSLIF: 65 -26 0 0
EndChar
StartChar: X
Encoding: 88 88 12
Width: 579
Flags: MW
DStem: 33 682 125 682 246 350 291 418 246 350 289 272 35 0 126 0 289 272 335 350 450 0 546 0 451 682 543 682 291 418 335 350
Fore
33 682 m 0
 125 682 l 1
 291 418 l 5
 451 682 l 1
 543 682 l 1
 335 350 l 1
 546 0 l 1
 450 0 l 1
 289 272 l 1
 126 0 l 1
 35 0 l 1
 246 350 l 1
 33 682 l 0
EndSplineSet
EndChar
StartChar: Y
Encoding: 89 89 13
Width: 563
Flags: MW
VStem: 230 87<0 350>
DStem: 33 682 129 682 230 350 276 421
Fore
33 682 m 1
 129 682 l 1
 276 421 l 1
 435 682 l 1
 531 682 l 1
 317 350 l 1
 317 0 l 1
 230 0 l 1
 230 350 l 1
 33 682 l 1
EndSplineSet
KernsSLIF: 97 -59 0 0
EndChar
StartChar: Z
Encoding: 90 90 14
Width: 632
Flags: WO
HStem: 0 65<178 578> 619 63<55 441>
DStem: 441 619 571 682 44 0 178 65
Fore
55.7949 682 m 1
 571 682 l 1
 178 65 l 1
 578 65 l 1
 578 0 l 1
 44 0 l 1
 441 619 l 1
 56 619 l 1
 55.7949 682 l 1
EndSplineSet
EndChar
StartChar: bracketleft
Encoding: 91 91 15
Width: 252
Flags: W
HStem: -11 89<121 226> 629 96<26 226>
VStem: 26 95<-11 629>
Fore
226 -11 m 0
 26 -11 l 1
 26 725 l 0
 226 725 l 1
 226 629 l 1
 121 629 l 1
 121 78 l 1
 226 78 l 1
 226 -11 l 0
EndSplineSet
EndChar
StartChar: backslash
Encoding: 92 92 16
Width: 489
Flags: MW
DStem: 10 723 136 723 346 0 472 0
Fore
346 0 m 1
 10 723 l 1
 136 723 l 0
 472 0 l 1
 346 0 l 1
EndSplineSet
EndChar
StartChar: bracketright
Encoding: 93 93 17
Width: 256
Flags: W
HStem: -14 89<26 226> 626 96<26 131>
VStem: 131 95<75 722>
Fore
26 -14 m 0
 26 75 l 1
 131 75 l 1
 131 626 l 1
 26 626 l 1
 26 722 l 1
 226 722 l 0
 226 -14 l 1
 26 -14 l 0
EndSplineSet
EndChar
StartChar: asciicircum
Encoding: 94 94 18
Width: 435
Flags: MW
DStem: 165 699 218 626 16 539 141 539 218 626 268 699 299 536 420 536
Fore
420 536 m 1
 299 536 l 1
 218 626 l 1
 141 539 l 0
 16 539 l 1
 165 699 l 1
 268 699 l 1
 420 536 l 1
EndSplineSet
EndChar
StartChar: underscore
Encoding: 95 95 19
Width: 582
Flags: W
HStem: -127 95<26 556.741>
Fore
26 -128 m 1
 26 -32 l 1
 557 -32 l 1
 557 -127 l 1
 380 -127 204 -128 26 -128 c 1
EndSplineSet
EndChar
StartChar: grave
Encoding: 96 96 20
Width: 249
Flags: W
HStem: 609 119<23 220>
DStem: 23 728 137 728 105 609 220 609
Fore
220 609 m 1
 105 609 l 2
 23 728 l 2
 137 728 l 1
 220 609 l 1
EndSplineSet
EndChar
StartChar: a
Encoding: 97 97 21
Width: 480
Flags: W
HStem: -14 86<168 175 454 454> 402 86<267 307>
VStem: 9 89<161 178> 296 90<277 337>
Fore
98 175 m 1
 98 96 132 72 174 72 c 1
 216.719 77.5115 278.904 154.152 296 277 c 1
 296 285.96 298.195 309.499 298.195 337.451 c 0
 298.195 359.413 296.84 379.16 292 384 c 0
 280.86 395.14 283.347 402 267 402 c 0
 216 402 98 263 98 175 c 1
300 72 m 1
 276 26 231 -14 175 -14 c 1
 47 -14 9 67 9 176 c 0
 9 312 140 446 233 480 c 0
 248 486 270 488 307 488 c 1
 356 488 386 409 386 357 c 1
 386 129 l 0
 386 78 432 72 454 72 c 1
 454 -14 l 1
 388 -14 314 18 300 72 c 1
EndSplineSet
KernsSLIF: 118 -60 0 0 116 -46 0 0
EndChar
StartChar: b
Encoding: 98 98 22
Width: 446
Flags: W
HStem: -14 86<217 235> 399 87<240 251> 662 20G<26 116>
VStem: 26 90<0 24 42 243 252 682> 335 89<225 254>
Fore
116 0 m 17
 26 0 l 1
 26 42 l 1
 26 252 l 1
 26 682 l 5
 116 682 l 1
 116 431 l 17
 153 464 201 486 240 486 c 0
 345 486 424 363 424 237 c 0
 424 112 369 -14 221 -14 c 1
 189 -14 116 24 116 24 c 0
 116 24 116 9.36035 116 0 c 17
335 235 m 0
 335 308 299 399 245 399 c 1
 175 384 117 288 117 235 c 1
 117 166 171 72 226 72 c 0
 264 72 335 122 335 235 c 0
EndSplineSet
EndChar
StartChar: c
Encoding: 99 99 23
Width: 392
Flags: W
HStem: -15 86<219 237> 399 87<203 221>
VStem: 12 89<224 242>
Fore
360 424 m 9
 340.5 400.6 310 364 310 364 c 0
 296 378 254 399 205 399 c 1
 151 399 101 308 101 235 c 0
 101 122 189 71 227 71 c 0
 258 71 307 99 327 130 c 9
 378 68 l 1
 366 40 283 -15 232 -15 c 1
 84 -15 12 112 12 237 c 4
 12 363 105 486 210 486 c 0
 266 486 323 457 360 424 c 9
EndSplineSet
EndChar
StartChar: d
Encoding: 100 100 24
Width: 442
Flags: W
HStem: -14 86<207 221> 400 88<191 200> 662 20G<324 414>
VStem: 16 89<225 254> 324 90<0 24 225 252 432 682>
Fore
324 0 m 9
 324 9.36035 324 24 324 24 c 0
 324 24 249 -14 219 -14 c 1
 71 -14 16 112 16 237 c 4
 16 363 95 488 200 488 c 0
 239 488 287 465 324 432 c 9
 324 682 l 1
 414 682 l 1
 414 252 l 1
 414 42 l 1
 414 0 l 1
 324 0 l 9
105 235 m 0
 105 122 176 72 214 72 c 0
 269 72 323 166 323 235 c 1
 323 288 265 386 195 400 c 1
 141 400 105 308 105 235 c 0
EndSplineSet
EndChar
StartChar: e
Encoding: 101 101 25
Width: 445
Flags: W
HStem: -14 90<207.256 224> 198 86<112 421> 395 92<206 224>
Fore
112 284 m 0
 323 284 l 0
 311 324 284 395 217 395 c 1
 156 395 123 324 112 284 c 0
109 198 m 0
 127 123 180 76 217 76 c 0
 252 76 296 98 316 119 c 9
 377 55 l 1
 349 26 305 -14 218 -14 c 1
 93 -14 15 113 15 238 c 0
 15 364 91 487 218 487 c 5
 337 487 399 372 418 286 c 0
 424.756 255.117 419.09 230.463 421 198 c 1
 109 198 l 0
EndSplineSet
KernsSLIF: 116 -26 0 0
EndChar
StartChar: f
Encoding: 102 102 26
Width: 448
Flags: MW
HStem: 350 86<26 132 222 381>
VStem: 132 90<0 350 436 682>
Fore
222 350 m 0
 222 0 l 1
 132 0 l 1
 132 350 l 0
 26 350 l 1
 26 436 l 1
 132 436 l 0
 132 682 l 1
 222 682 l 9
 222 672.25 222 657 222 657 c 0
 222 657 276 695 324 695 c 1
 370 695 406 685 435 668 c 9
 377 598 l 17
 360 606 343 609 329 609 c 0
 274 609 222 538 222 469 c 1
 222 436 l 0
 381 436 l 1
 381 350 l 1
 222 350 l 0
EndSplineSet
KernsSLIF: 97 -39 0 0 110 -33 0 0 121 -20 0 0 116 -1 0 0 117 -40 0 0 111 -20 0 0
EndChar
StartChar: g
Encoding: 103 103 27
Width: 438
Flags: W
HStem: -220 86<210 224> -14 86<205 225> 403 87<189 198>
VStem: 14 89<211 252> 322 90<-2 24 211 252 435 484>
Fore
322 24 m 1
 322 24 248 -14 217 -14 c 1
 69 -14 14 110 14 235 c 0
 14 361 93 490 198 490 c 0
 237 490 285 468 322 435 c 9
 322 484 l 1
 412 484 l 1
 412 250 l 1
 412 42 l 1
 412 0 l 1
 412 -136 309 -220 222 -220 c 1
 75 -220 34 -108 25 -47 c 4
 25 -47 80 -48 115 -49 c 17
 122 -100 180 -134 218 -134 c 0
 275 -134 322 -60 322 11 c 0
 322 16 322 20 322 24 c 1
103 233 m 0
 103 120 174 72 212 72 c 0
 276 72 321 140 321 233 c 1
 321 320 276 388 193 403 c 1
 139 403 103 306 103 233 c 0
EndSplineSet
EndChar
StartChar: h
Encoding: 104 104 28
Width: 450
Flags: MW
VStem: 26 90<0 289 0 682> 335 90<0 289>
Fore
116 0 m 17
 26 0 l 1
 26 682 l 1
 116 682 l 5
 116 438 l 17
 153 471 201 494 240 494 c 0
 345 494 425 404 425 279 c 0
 425 -0 l 1
 335 0 l 1
 335 277 l 0
 335 349 299 408 245 408 c 1
 184 408 116 329 116 277 c 0
 116 206 116 108.03 116 0 c 17
EndSplineSet
EndChar
StartChar: i
Encoding: 105 105 29
Width: 226
Flags: W
HStem: -15 82<184 219>
VStem: 26 90<112 484 574 670>
Fore
26 122 m 1
 26 484 l 1
 116 484 l 0
 116 124 l 0
 116 73 162 67 184 67 c 1
 220 67 l 1
 220 -15 l 1
 184 -15 l 1
 84 -15 26 43 26 122 c 1
26 670 m 5
 116 670 l 1
 116 574 l 1
 26 574 l 1
 26 670 l 5
EndSplineSet
EndChar
StartChar: j
Encoding: 106 106 30
Width: 355
Flags: MW
HStem: 574 96<232 328>
VStem: 231 98<0 484 574 670>
Fore
232 670 m 5
 328 670 l 1
 328 574 l 1
 232 574 l 1
 232 670 l 5
-7 -50 m 9
 89 -48 l 1
 97 -88 105 -126 165 -126 c 1
 225 -126 231 -29 231 0 c 1
 232 484 l 1
 329 484 l 0
 329 0 l 1
 329 -152 243 -220 165 -220 c 1
 49 -220 5 -114 -7 -50 c 9
EndSplineSet
EndChar
StartChar: k
Encoding: 107 107 31
Width: 402
Flags: MW
VStem: 26 90<0 211 0 682>
DStem: 116 211 186 266 270 0 387 0 261 484 383 484 116 324 186 266
Fore
186 266 m 1
 387 0 l 1
 270 0 l 1
 116 211 l 1
 116 0 l 17
 26 0 l 1
 26 682 l 1
 116 682 l 1
 116 324 l 17
 261 484 l 1
 383 484 l 1
 186 266 l 1
EndSplineSet
EndChar
StartChar: l
Encoding: 108 108 32
Width: 246
Flags: MW
HStem: -14 82<172.203 224>
VStem: 26 90<113 682>
Fore
116 125 m 0
 116 74 166 68 188 68 c 1
 224 68 l 1
 224 -14 l 1
 188 -14 l 1
 88 -14 26 44 26 123 c 1
 26 682 l 1
 116 682 l 1
 116 125 l 0
EndSplineSet
EndChar
StartChar: m
Encoding: 109 109 33
Width: 647
Flags: HMW
VStem: 26 90<0 241 0 484> 281 90<0 262> 532 90<0 262>
Fore
371 260 m 0
 371 1 l 1
 281 1 l 1
 281 233 l 0
 281 306 263 403 209 403 c 1
 149 403 116 286 116 233 c 0
 116 1 l 17
 26 1 l 1
 26 484 l 1
 116 484 l 1
 116 435 l 17
 146 462 168 490 204 490 c 0
 263 490 309 458 338 409 c 0
 365 440 l 1
 395 467 416 490 452 490 c 0
 557 490 622 361 622 235 c 0
 622 1 l 1
 532 1 l 0
 532 233 l 0
 532 306 511 403 457 403 c 1
 409 403 371 298 371 260 c 0
EndSplineSet
EndChar
StartChar: n
Encoding: 110 110 34
Width: 450
Flags: HMW
VStem: 26 90<0 273 278 484> 334 90<0 280>
Fore
116 0 m 9
 26 0 l 1
 26 278 l 1
 26 483 l 1
 116 483 l 1
 116 435 l 17
 153 468 201 494 240 494 c 0
 345 494 424 389 424 263 c 0
 424 0 l 1
 334 0 l 0
 334 261 l 0
 334 334 299 407 245 407 c 1
 183 407 116 314 116 261 c 0
 116 0 l 9
EndSplineSet
EndChar
StartChar: o
Encoding: 111 111 35
Width: 450
Flags: W
HStem: -14 86<209.946 228> 401 86<210.06 228>
VStem: 17 90<236 259> 343 90<236 259>
Fore
17 236 m 0
 17 362 87.9961 487 225 487 c 0
 364 487 433 360.552 433 236 c 0
 433 110 364 -14 225 -14 c 1
 86 -14 17 110 17 236 c 0
107 236 m 0
 107 163 140 72 225 72 c 0
 310 72 343 163 343 236 c 0
 343 309 310 401 225 401 c 0
 140 401 107 309 107 236 c 0
EndSplineSet
EndChar
StartChar: p
Encoding: 112 112 36
Width: 442
Flags: W
HStem: -14 86<216 225> 403 87<237 251>
VStem: 26 90<-206 24 42 252 250 484> 332 89<225 252>
Fore
116 -206 m 17
 26 -206 l 1
 26 42 l 1
 26 250 l 1
 26 484 l 1
 116 484 l 1
 116 435 l 17
 153 468 198 490 237 490 c 0
 342 490 421 361 421 235 c 0
 421 110 366 -14 218 -14 c 1
 187 -14 116 24 116 24 c 0
 116 24 116 -116.3 116 -206 c 17
332 233 m 0
 332 306 296 403 242 403 c 1
 172 388 117 320 117 233 c 1
 117 120 168 72 223 72 c 0
 261 72 332 120 332 233 c 0
EndSplineSet
EndChar
StartChar: q
Encoding: 113 113 37
Width: 438
Flags: W
HStem: -14 90<194 217> 399 91<189 198>
VStem: 14 82<216 252> 316 93<216 252> 320 89<-93 -77>
Fore
467 -215 m 1xe8
 376 -215 320 -179 320 -93 c 1
 319 24 l 0
 319 24 249 -14 217 -14 c 1
 69 -14 14 110 14 235 c 0
 14 361 93 490 198 490 c 0
 237 490 282 468 319 435 c 9
 319 484 l 1
 409 484 l 1xe8
 409 250 l 1xf0
 409 42 l 1
 409 -77 l 1
 409 -115 432 -129 467 -129 c 1
 467 -215 l 1xe8
96 233 m 0
 96 120 161 76 199 76 c 0
 254 76 316 124 316 233 c 1xf0
 316 332 264 384 194 399 c 1
 140 399 96 306 96 233 c 0
EndSplineSet
EndChar
StartChar: r
Encoding: 114 114 38
Width: 392
Flags: MW
VStem: 26 90<0 273 0 484>
Fore
348 383 m 5
 337 390 262 403 245 403 c 5
 188 403 116 324 116 271 c 4
 116 271 116 105.69 116 0 c 17
 26 0 l 1
 26 484 l 1
 116 484 l 1
 116 435 l 17
 153 468 201 490 240 490 c 0
 270 490 356 478 380 463 c 1
 348 383 l 5
EndSplineSet
KernsSLIF: 101 -20 0 0
EndChar
StartChar: s
Encoding: 115 115 39
Width: 379
Flags: W
HStem: -14 86<176.307 193> 408 86<186 193>
VStem: 18 94<343 357> 268 94<129 139>
Fore
188 195 m 0
 110 219 18 264 18 345 c 0
 18 422 86 494 188 494 c 0
 276 494 337 437 357 392 c 1
 274 357 l 0
 266 378 220 408 189 408 c 0
 158 408 112 384 112 348 c 0
 112 316 158 292 189 282 c 0
 264 259 362 217 362 137 c 0
 362 50 289 -14 190 -14 c 0
 92 -14 25 38 14 106 c 1
 45.1837 109.282 89.1624 117.279 104.489 117.279 c 0
 107.839 117.279 109.821 116.897 110 116 c 0
 115 97 156 72 188 72 c 0
 220 72 268 94 268 132 c 0
 268 164 211 188 188 195 c 0
EndSplineSet
EndChar
StartChar: t
Encoding: 116 116 40
Width: 353
Flags: W
HStem: -14 82<269.584 321> 397 86<26 128 218 336>
VStem: 128 90<113 397 483 618>
Fore
128 397 m 0
 26 397 l 1
 26 483 l 1
 128 483 l 0
 128 618 l 1
 218 618 l 4
 218 483 l 0
 336 483 l 1
 336 397 l 1
 218 397 l 0
 218 125 l 0
 218 74 263 68 285 68 c 1
 321 68 l 1
 321 -14 l 1
 285 -14 l 1
 185 -14 128 44 128 123 c 1
 128 397 l 0
EndSplineSet
EndChar
StartChar: u
Encoding: 117 117 41
Width: 450
Flags: MW
VStem: 26 91<203 483> 335 90<-1 205 210 483>
Fore
335 483 m 9
 425 483 l 1
 425 205 l 1
 425 -1 l 1
 335 -1 l 1
 335 48 l 17
 298 15 250 -13 211 -13 c 0
 106 -13 26 94 26 220 c 0
 26 483 l 1
 117 483 l 0
 117 222 l 0
 117 149 152 74 206 74 c 1
 271 74 335 169 335 222 c 0
 335 483 l 9
EndSplineSet
EndChar
StartChar: v
Encoding: 118 118 42
Width: 469
Flags: MW
Fore
200 0 m 1
 10 484 l 1
 108 484 l 1
 235 132 l 1
 360 484 l 1
 457 484 l 1
 270 -0 l 1
 200 0 l 1
EndSplineSet
EndChar
StartChar: w
Encoding: 119 119 43
Width: 569
Flags: MW
DStem: 245 414 286 290 177 193 205 0 286 290 325 414 370 0 395 190
Fore
286 290 m 1
 205 0 l 1
 147.986 0 l 0
 148 0 l 1
 10 484 l 1
 105 484 l 1
 177 193 l 1
 245 414 l 0
 245 414 293.8 414 325 414 c 17
 395 190 l 1
 464 484 l 17
 559 484 l 1
 427 0 l 1
 369.948 0 l 0
 370 0 l 1
 286 290 l 1
EndSplineSet
EndChar
StartChar: x
Encoding: 120 120 44
Width: 458
Flags: HMW
DStem: 11 484 122 484 168 239 226 310 168 239 226 169 9.99616 -0.0135541 124 0 226 169 284.009 241.405 333.006 -0.0214844 445 -0
Fore
445 -0 m 1
 334 0 l 9
 226 169 l 1
 124 0 l 1
 9.99616 -0.0135541 l 9
 168 239 l 1
 11 484 l 9
 122 484 l 0
 226 310 l 0
 330 484 l 1
 441 484 l 1
 284.009 241.405 l 0
 445 -0 l 1
EndSplineSet
EndChar
StartChar: y
Encoding: 121 121 45
Width: 450
Flags: MW
HStem: -222 86<217 234> -1 86<217 229>
VStem: 26 89<193 483> 334 90<1 484>
Fore
26 484 m 9
 116 484 l 1
 116 409 115 287 115 213 c 0
 115 100 186 85 224 85 c 0
 279 85 334 144 334 213 c 0
 334 484 l 1
 424 484 l 1
 424 -5 l 1
 424 -124 312 -222 228 -222 c 1
 81 -222 40 -108 31 -47 c 0
 31 -47 85.9004 -48.2197 121 -49 c 17
 128 -100 186 -136 224 -136 c 0
 278 -136 334 -51 334 18 c 0
 334 37 l 1
 334 37 263.277 -1.07258 231.333 -1.07258 c 0
 230.534 -1.07258 229.756 -1.04878 229 -1 c 1
 81 -1 26 90 26 215 c 0
 26 227.764 26 484.217 26 484.217 c 0
 26 484 l 9
EndSplineSet
EndChar
StartChar: z
Encoding: 122 122 46
Width: 457
Flags: MW
HStem: 0 90 395 89<26 264>
DStem: 264 395 433 484 18.002 -0.00195312 186 90
Fore
186 90 m 1
 430 90 l 1
 430 0 l 1
 18.002 -0.00195312 l 1
 264 395 l 2
 26 395 l 1
 26 484 l 1
 433 484 l 1
 186 90 l 1
EndSplineSet
EndChar
StartChar: braceleft
Encoding: 123 123 21
Width: 310
Flags: W
Fore
5 350 m 1
 137 392 84 587 110 648 c 1
 140 709 218 709 285 711 c 1
 285 615 l 1
 277.658 616.468 270.536 617.189 263.709 617.189 c 0
 237.986 617.189 216.434 606.966 203 588 c 1
 197.838 578.763 197.252 560.374 197.252 537.566 c 0
 197.252 530.868 197.303 523.79 197.303 516.45 c 0
 197.303 456.777 193.964 379.834 133 350 c 1
 193.964 325.355 197.303 246.87 197.303 185.472 c 0
 197.303 177.92 197.252 170.627 197.252 163.724 c 0
 197.252 140.216 197.838 121.237 203 112 c 1
 216.434 93.0344 237.986 82.8113 263.709 82.8113 c 0
 270.536 82.8113 277.658 83.5316 285 85 c 1
 285 -11 l 1
 218 -9 140 -9 110 52 c 1
 84 113 137 310 5 350 c 1
EndSplineSet
EndChar
StartChar: bar
Encoding: 124 124 22
Width: 149
Flags: W
HStem: 0 21G<26 122> 680 20G<26 122>
VStem: 26 96<0 700>
Fore
26 0 m 17
 26 700 l 1
 122 700 l 1
 122 0 l 9
 26 0 l 17
EndSplineSet
EndChar
StartChar: braceright
Encoding: 125 125 22
Width: 318
Flags: W
Fore
306 350 m 5
 174 310 227 113 201 52 c 5
 171 -9 93 -9 26 -11 c 5
 26 85 l 5
 33.3418 83.5316 40.4635 82.8113 47.2914 82.8113 c 0
 73.0139 82.8113 94.566 93.0344 108 112 c 5
 113.162 121.237 113.748 140.216 113.748 163.724 c 0
 113.748 170.627 113.697 177.92 113.697 185.472 c 0
 113.697 246.87 117.036 325.355 178 350 c 5
 117.036 379.834 113.697 456.777 113.697 516.45 c 0
 113.697 523.79 113.748 530.868 113.748 537.566 c 0
 113.748 560.374 113.162 578.763 108 588 c 5
 94.566 606.966 73.0139 617.189 47.2914 617.189 c 0
 40.4635 617.189 33.3418 616.468 26 615 c 5
 26 711 l 5
 93 709 171 709 201 648 c 5
 227 587 174 392 306 350 c 5
EndSplineSet
EndChar
StartChar: asciitilde
Encoding: 126 126 23
Width: 359
Flags: W
Fore
26 388 m 17
 48 406 77 435 114 435 c 1
 114.325 435.007 114.648 435.01 114.971 435.01 c 0
 163.411 435.01 194.338 361 245 361 c 1
 279 361 307 387 337 409 c 9
 337 313 l 17
 307 290 281 265 245 265 c 1
 190.364 265 160.398 339.01 114.912 339.01 c 0
 114.609 339.01 114.305 339.007 114 339 c 1
 76 339 53 314 26 292 c 9
 26 388 l 17
EndSplineSet
EndChar
StartChar: exclamdown
Encoding: 161 161 25
Width: 166
Flags: W
HStem: 414 20G<35 131> 516 138<83 95>
VStem: 35 96<-40 434>
Fore
14 585 m 0
 14 623 45 654 83 654 c 0
 121 654 152 623 152 585 c 0
 152 547 121 516 83 516 c 0
 45 516 14 547 14 585 c 0
131 434 m 1
 131 -40 l 1
 35 -40 l 1
 35 434 l 1
 131 434 l 1
EndSplineSet
EndChar
StartChar: cent
Encoding: 162 162 26
Width: 395
Flags: W
HStem: 0 187<221 266> 450 196<164 223>
VStem: 14 95<303 337> 164 96<540 646>
Fore
170 98 m 1
 65 124 14 215 14 321 c 0
 14 427 80 516 164 541 c 1
 164 646 l 1
 260 646 l 1
 260 541 l 1
 299 531 336 509 362 486 c 9
 340 458 306 416 306 416 c 0
 292 430 256 450 207 450 c 1
 153 450 109 392 109 319 c 0
 109 205 191 187 229 187 c 0
 260 187 303 215 323 245 c 9
 380 174 l 1
 370 151 314 111 266 96 c 1
 266 0 l 1
 170 0 l 1
 170 98 l 1
EndSplineSet
EndChar
StartChar: sterling
Encoding: 163 163 27
Width: 547
Flags: W
HStem: 0 96<207 432> 276 96<26 137 247 402>
Fore
137 276 m 1
 26 276 l 1
 26 372 l 1
 142 372 l 1
 145.844 544.971 141.377 684.699 271.466 684.699 c 0
 276.752 684.699 282.26 684.469 288 684 c 1
 329 679 423 660 462 537 c 1
 366 534 l 1
 360 576 305 587 293 587 c 1
 292.071 587.008 l 0
 250.376 587.008 247.154 535.909 247.154 456.065 c 0
 247.154 441.469 247.262 425.912 247.262 409.53 c 0
 247.262 397.45 247.203 384.922 247 372 c 1
 402 372 l 1
 402 276 l 1
 244 276 l 1
 242 248 232 219 228 189 c 1
 223 153 215 120 207 96 c 1
 438 96 l 1
 454 97 471 98 495 131 c 1
 534 45 l 1
 511 10 471 6 432 0 c 1
 56 0 l 1
 65 36 108 111 120 180 c 1
 124 211 135 244 137 276 c 1
EndSplineSet
EndChar
StartChar: currency
Encoding: 164 164 28
Width: 418
Flags: W
HStem: 183 96<26 122 330 392> 219 89<209 219> 434 91<209 219> 462 96<26 85 296 392>
VStem: 26 96<183 246 462 558> 56 90<359.671 376> 272 90<359.671 376> 296 96<183 279 498 558>
Fore
146 371 m 0x66
 146 336 174 308 209 308 c 0
 244 308 272 336 272 371 c 0
 272 406 244 434 209 434 c 0
 174 434 146 406 146 371 c 0x66
296 246 m 1x91
 271 229 241 219 209 219 c 0x41
 177 219 147 229 122 246 c 1
 122 183 l 1
 26 183 l 1
 26 279 l 1x89
 88 279 l 1
 68 305 56 337 56 372 c 0x84
 56 406 67 437 85 462 c 1
 26 462 l 1
 26 558 l 1
 122 558 l 1x98
 122 498 l 1
 147 515 177 525 209 525 c 0x28
 241 525 271 515 296 498 c 1
 296 558 l 1
 392 558 l 1
 392 462 l 1x19
 333 462 l 1
 351 437 362 406 362 372 c 0x12
 362 337 350 305 330 279 c 1
 392 279 l 1
 392 183 l 1
 296 183 l 1
 296 246 l 1x91
EndSplineSet
EndChar
StartChar: yen
Encoding: 165 165 29
Width: 542
Flags: W
HStem: 0 21G<208 315> 132 96<73 208 315 448> 303 96<73 208 347 448> 662 20G<11 127 413 529>
VStem: 208 107<0 132 228 303>
DStem: 11 682 127 682 179 399 267 441
Fore
208 303 m 1
 73 303 l 1
 73 399 l 1
 179 399 l 1
 11 682 l 1
 127 682 l 1
 267 441 l 1
 413 682 l 1
 529 682 l 1
 347 399 l 1
 448 399 l 1
 448 303 l 1
 315 303 l 1
 315 228 l 1
 448 228 l 1
 448 132 l 1
 315 132 l 1
 315 0 l 1
 208 0 l 1
 208 132 l 1
 73 132 l 1
 73 228 l 1
 208 228 l 1
 208 303 l 1
EndSplineSet
EndChar
StartChar: brokenbar
Encoding: 166 166 26
Width: 149
Flags: W
HStem: 0 21G<26 122> 680 20G<26 122>
VStem: 26 96<0 325 375 700>
Fore
122 325 m 17
 122 0 l 1
 26 0 l 1
 26 325 l 9
 122 325 l 17
26 375 m 17
 26 700 l 1
 122 700 l 1
 122 375 l 9
 26 375 l 17
EndSplineSet
EndChar
StartChar: section
Encoding: 167 167 27
Width: 335
Flags: W
HStem: 211 96<190 198> 376 96<138 146>
Fore
116 468 m 1
 123 470 131 472 140 472 c 0
 142.626 472.177 145.249 472.264 147.867 472.264 c 0
 233.949 472.264 314.207 377.783 321 272 c 0
 321.234 267.743 321.35 263.49 321.35 259.248 c 0
 321.35 154.872 251.524 56.7657 166 51 c 0
 163.249 50.807 160.503 50.7118 157.764 50.7118 c 0
 103.741 50.7118 52.3593 87.7506 20 142 c 9
 107 177 l 17
 120.457 158.737 139.457 146.942 157.784 146.942 c 0
 158.524 146.942 159.263 146.961 160 147 c 0
 188 149 210 178 220 215 c 0
 213 213 205 211 196 211 c 0
 193.374 210.823 190.751 210.736 188.133 210.736 c 0
 102.052 210.736 21.8229 305.217 16 411 c 0
 15.6843 415.916 15.5293 420.826 15.5293 425.721 c 0
 15.5293 529.358 85.0141 626.271 170 632 c 0
 172.233 632.126 174.465 632.189 176.693 632.189 c 0
 227.35 632.189 276.433 599.893 309 552 c 0
 221 514 l 0
 208.658 527.291 193.613 536.076 178.43 536.076 c 0
 177.621 536.076 176.81 536.051 176 536 c 0
 148 534 126 505 116 468 c 1
214 314 m 0
 200.488 349.709 175.799 376.104 148.922 376.104 c 0
 147.951 376.104 146.977 376.07 146 376 c 0
 137 376 129 373 122 369 c 1
 135.512 333.291 160.201 306.896 187.078 306.896 c 0
 188.049 306.896 189.023 306.93 190 307 c 0
 199 307 207 310 214 314 c 0
EndSplineSet
EndChar
StartChar: dieresis
Encoding: 168 168 27
Width: 388
Flags: W
HStem: 451 20G<60.5 95.5 291.5 326.5>
VStem: 14 127<396.815 411> 246 126<396.671 411>
Fore
78 345 m 0
 43 345 14 373 14 408 c 0
 14 443 43 471 78 471 c 0
 113 471 141 443 141 408 c 0
 141 373 113 345 78 345 c 0
309 345 m 0
 274 345 246 373 246 408 c 0
 246 443 274 471 309 471 c 0
 344 471 372 443 372 408 c 0
 372 373 344 345 309 345 c 0
EndSplineSet
LCarets: 0 65535 '    ' 1 0 
Ligature: 0 1 'liga' space uni0308
EndChar
StartChar: copyright
Encoding: 169 169 28
Width: 460
Flags: W
HStem: 152 56<229 240> 265 55<229 231> 412 55<229 231> 524 56<229 240>
VStem: 15 57<366 377> 128 55<366 368> 386 57<366 377>
Fore
300 295 m 17
 282 277 257 265 229 265 c 0
 173 265 128 310 128 366 c 0
 128 422 173 467 229 467 c 0
 257 467 282 455 300 437 c 9
 262 399 l 17
 253 407 242 412 229 412 c 0
 204 412 183 391 183 366 c 0
 183 341 204 320 229 320 c 0
 242 320 253 325 262 333 c 9
 300 295 l 17
262 399 m 0
262 333 m 0
300 437 m 0
300 295 m 0
229 366 m 25
72 366 m 0
 72 279 142 208 229 208 c 0
 316 208 386 279 386 366 c 0
 386 453 316 524 229 524 c 0
 142 524 72 453 72 366 c 0
15 366 m 0
 15 484 111 580 229 580 c 0
 347 580 443 484 443 366 c 0
 443 248 347 152 229 152 c 0
 111 152 15 248 15 366 c 0
EndSplineSet
EndChar
StartChar: ordfeminine
Encoding: 170 170 29
Width: 243
Flags: W
HStem: 435 42<92 101>
VStem: 20 41<501.592 515>
DStem: 168 490 159 639 184 441 229 441
Fore
168 490 m 17
 165 466 128 435 92 435 c 1
 36 435 20 466 20 512 c 0
 20 575 87 618 128 633 c 0
 134 636 143 639 159 639 c 1
 229 441 l 1
 184 441 l 1
 168 490 l 17
61 512 m 1
 61 488 75 477 92 477 c 0
 113 477 141 497 141 553 c 0
 141 568 136 587 133 592 c 1
 110 579 61 552 61 512 c 1
EndSplineSet
EndChar
StartChar: guillemotleft
Encoding: 171 171 30
Width: 416
Flags: W
DStem: 14 404 110 404 108 262 204 262 108 546 204 546 14 404 110 404 210 404 306 404 304 262 400 262 304 546 400 546 210 404 306 404
Fore
304 546 m 1
 400 546 l 1
 306 404 l 1
 400 262 l 1
 304 262 l 1
 210 404 l 1
 304 546 l 1
108 546 m 1
 204 546 l 1
 110 404 l 1
 204 262 l 1
 108 262 l 1
 14 404 l 1
 108 546 l 1
EndSplineSet
EndChar
StartChar: logicalnot
Encoding: 172 172 31
Width: 427
Flags: W
HStem: 340 96<26 304>
VStem: 304 96<246 436>
Fore
400 246 m 1
 304 246 l 1
 304 340 l 0
 26 340 l 1
 26 436 l 1
 26 436 l 1
 400 436 l 1
 400 246 l 1
EndSplineSet
EndChar
StartChar: softhyphen
Encoding: 173 173 32
Width: 426
Flags: W
HStem: 340 96<26 401>
Fore
26 436 m 1
 26 436 l 1
 401 436 l 1
 401 340 l 1
 26 340 l 1
 26 436 l 1
EndSplineSet
EndChar
StartChar: registered
Encoding: 174 174 33
Width: 476
Flags: W
HStem: 119 57<239 246> 556 57<239 246>
VStem: 21 57<366 392> 153 40<242 351 242 455> 293 39<423 425> 400 57<366 392>
DStem: 193 351 241 354 294 242 343 242
Back
313.11 294.89 m 17
 294.905 276.685 269.76 265.42 242 265.42 c 0
 186.479 265.42 141.42 310.479 141.42 366 c 0
 141.42 421.521 186.479 466.58 242 466.58 c 0
 269.76 466.58 294.905 455.315 313.11 437.11 c 9
 274.522 398.522 l 17
 266.196 406.848 254.696 412 242 412 c 0
 216.608 412 196 391.392 196 366 c 0
 196 340.608 216.608 320 242 320 c 0
 254.696 320 266.196 325.152 274.522 333.478 c 9
 313.11 294.89 l 17
274.522 398.522 m 0
274.522 333.478 m 0
313.11 437.11 m 0
313.11 294.89 m 0
242 366 m 25
84.5 366 m 4
 84.5 279.061 155.061 208.5 242 208.5 c 4
 328.939 208.5 399.5 279.061 399.5 366 c 4
 399.5 452.939 328.939 523.5 242 523.5 c 4
 155.061 523.5 84.5 452.939 84.5 366 c 4
28 366 m 4
 28 484.128 123.872 580 242 580 c 4
 360.128 580 456 484.128 456 366 c 4
 456 247.872 360.128 152 242 152 c 4
 123.872 152 28 247.872 28 366 c 4
EndSplineSet
Fore
78 366 m 0
 78 226 152 176 239 176 c 0
 326 176 400 226 400 366 c 0
 400 506 326 556 239 556 c 0
 152 556 78 506 78 366 c 0
21 366 m 0
 21 546 121 613 239 613 c 0
 357 613 457 546 457 366 c 0
 457 186 357 119 239 119 c 0
 121 119 21 186 21 366 c 0
193 391 m 1
 201 391 209.397 390.868 217.781 390.868 c 0
 255.512 390.868 293 393.545 293 423 c 1
 293 453.421 246.568 455.022 206.709 455.022 c 0
 202.019 455.022 197.421 455 193 455 c 1
 193 391 l 1
153 493 m 0
 193 493 l 1
 266 493 332 475 332 423 c 0
 332 374 288 361 241 354 c 1
 343 242 l 1
 294 242 l 1
 193 351 l 1
 193 351.528 l 0
 193 242 l 1
 153 242 l 1
 153 493 l 0
EndSplineSet
EndChar
StartChar: macron
Encoding: 175 175 34
Width: 345
Flags: W
HStem: 486 96<26 321>
Fore
26 582 m 1
 26 582 l 1
 321 582 l 1
 321 486 l 1
 26 486 l 1
 26 582 l 1
EndSplineSet
LCarets: 0 65535 '    ' 1 0 
Ligature: 0 1 'liga' space uni0304
EndChar
StartChar: degree
Encoding: 176 176 28
Width: 292
Flags: W
HStem: 447 74<136.016 149> 625 74<136.016 149>
VStem: 19 77<562.405 576> 196 79<562.405 576>
Fore
96 573 m 0
 96 544 118 521 146 521 c 0
 174 521 196 544 196 573 c 0
 196 602 174 625 146 625 c 0
 118 625 96 602 96 573 c 0
19 573 m 0
 19 643 76 699 147 699 c 0
 218 699 275 643 275 573 c 0
 275 503 218 447 147 447 c 0
 76 447 19 503 19 573 c 0
EndSplineSet
EndChar
StartChar: plusminus
Encoding: 177 177 29
Width: 420
Flags: W
HStem: 110 96<26 393> 394 96<26 161 259 394>
VStem: 161 100<279 394 490 605>
Fore
26 206 m 1
 26 206 l 1
 393 206 l 1
 393 110 l 1
 26 110 l 1
 26 206 l 1
26 490 m 1
 26 490 l 1
 159 490 l 1
 159 605 l 1
 259 605 l 1
 259 490 l 1
 394 490 l 1
 394 394 l 1
 261 394 l 1
 261 279 l 1
 161 279 l 1
 161 394 l 1
 26 394 l 1
 26 490 l 1
EndSplineSet
EndChar
StartChar: uni00B2
Encoding: 178 178 30
Width: 214
Flags: W
HStem: 425 38<81 188> 662 38<102 106>
VStem: 142 42<606 618>
Fore
63 623 m 9
 25 640 l 17
 34 671 65 700 102 700 c 1
 139 700 184 671 184 606 c 1
 184 561 142 523 98 481 c 1
 81 463 l 1
 188 463 l 17
 188 425 l 1
 25 425 l 1
 25 463 l 1
 67 505 l 17
 98 537 142 567 142 606 c 0
 142 642 124 662 102 662 c 1
 82 662 69 646 63 623 c 9
EndSplineSet
EndChar
StartChar: uni00B3
Encoding: 179 179 31
Width: 206
Flags: W
HStem: 412 39<96 100> 542 38<96 99> 662 38<96 100>
VStem: 141 39<623 625>
Fore
14 466 m 9
 50 478 l 17
 60 458 81 451 96 451 c 1
 122 451 145 469 145 494 c 1
 145 522 126 542 96 542 c 1
 93 542 90.75 542.25 88.625 542.25 c 0
 86.5 542.25 84.5 542 82 541 c 1
 82 581 l 1
 84.5 580 86.5 579.75 88.75 579.75 c 0
 91 579.75 93.5 580 97 580 c 1
 124 580 141 597 141 623 c 1
 141 644 123 662 96 662 c 1
 82 662 61 656 54 637 c 9
 21 656 l 17
 35 686 65 700 96 700 c 1
 144 700 180 665 180 623 c 1
 180 586 160 569 150 560 c 1
 161 550 183 532 183 494 c 1
 183 444 145 412 96 412 c 1
 66 412 29 432 14 466 c 9
EndSplineSet
EndChar
StartChar: acute
Encoding: 180 180 29
Width: 249
Flags: W
DStem: 107 728 221 728 24 609 139 609
Fore
24 609 m 1
 107 728 l 1
 221 728 l 2
 139 609 l 2
 24 609 l 1
EndSplineSet
LCarets: 0 65535 '    ' 1 0 
Ligature: 0 1 'liga' space acutecomb
EndChar
StartChar: mu
Encoding: 181 181 30
Width: 454
Flags: W
HStem: -13 97<201 219> 415 20G<26 123 329 425>
VStem: 27 96<-174 15 203 435> 329 96<-1 205 209 435>
Fore
27 195 m 1
 26 203 26 212 26 220 c 0
 26 435 l 1
 123 435 l 0
 123 369 l 1
 123 222 l 0
 123 149 152 84 206 84 c 1
 271 84 329 169 329 222 c 1
 329 411 l 0
 329 411 329 426 329 435 c 17
 425 435 l 1
 425 393 l 1
 425 205 l 1
 425 -1 l 1
 329 -1 l 1
 329 48 l 17
 292 15 250 -13 211 -13 c 0
 179 -13 149 -3 123 15 c 1
 123 -174 l 1
 27 -174 l 1
 27 195 l 1
EndSplineSet
EndChar
StartChar: paragraph
Encoding: 182 182 31
Width: 481
Flags: W
HStem: 0 96<296 450> 601 81<317 354>
VStem: 14 96<486 497> 200 96<96 285 391 599> 349 101<96 682>
Fore
296 599 m 1
 296 378 l 1
 313 377 331 376 349 376 c 1
 349 601 l 1
 332 601 314 600 296 599 c 1
200 583 m 1
 148 566 110 537 110 486 c 1
 110 433 146 405 200 391 c 1
 200 583 l 1
296 96 m 1
 349 96 l 1
 349 284 l 1
 331 284 314 284 296 285 c 1
 296 96 l 1
200 0 m 1
 200 96 l 1
 200 297 l 1
 94 320 14 373 14 486 c 0
 14 618 178 682 354 682 c 1
 450 682 l 0
 450 0 l 1
 200 0 l 1
EndSplineSet
EndChar
StartChar: periodcentered
Encoding: 183 183 32
Width: 166
Flags: W
Fore
17 352 m 0
 17 388 46 417 82 417 c 0
 118 417 147 388 147 352 c 0
 147 316 118 287 82 287 c 0
 46 287 17 316 17 352 c 0
EndSplineSet
EndChar
StartChar: cedilla
Encoding: 184 184 30
Width: 201
Flags: W
Fore
22 -93 m 1
 37 -82 68 -60 68 -42 c 0
 68 -26 57 -14 41 9 c 0
 134 36 l 0
 155 16 175 -14 175 -48 c 0
 175 -102 107 -132 73 -154 c 1
 22 -93 l 1
EndSplineSet
LCarets: 0 65535 '    ' 1 0 
Ligature: 0 1 'liga' space uni0327
EndChar
StartChar: uni00B9
Encoding: 185 185 31
Width: 130
Flags: W
HStem: 662 20G<64 102>
VStem: 64 38<414 682>
Fore
35 606 m 1
 11 635 l 1
 64 682 l 1
 102 682 l 1
 102 414 l 1
 64 414 l 1
 65 631 l 1
 35 606 l 1
EndSplineSet
EndChar
StartChar: ordmasculine
Encoding: 186 186 32
Width: 291
Flags: W
HStem: 429 74<135.016 148> 607 74<135.016 148>
VStem: 18 77<544.405 558> 195 79<544.405 558>
Fore
95 555 m 0
 95 526 117 503 145 503 c 0
 173 503 195 526 195 555 c 0
 195 584 173 607 145 607 c 0
 117 607 95 584 95 555 c 0
18 555 m 0
 18 625 75 681 146 681 c 0
 217 681 274 625 274 555 c 0
 274 485 217 429 146 429 c 0
 75 429 18 485 18 555 c 0
EndSplineSet
EndChar
StartChar: guillemotright
Encoding: 187 187 33
Width: 416
Flags: W
DStem: 13 546 109 546 107 404 203 404 107 404 203 404 13 262 109 262 209 546 305 546 303 404 399 404 303 404 399 404 209 262 305 262
Fore
109 546 m 1
 203 404 l 1
 109 262 l 1
 13 262 l 1
 107 404 l 1
 13 546 l 1
 109 546 l 1
305 546 m 1
 399 404 l 1
 305 262 l 1
 209 262 l 1
 303 404 l 1
 209 546 l 1
 305 546 l 1
EndSplineSet
EndChar
StartChar: onequarter
Encoding: 188 188 34
Width: 499
Flags: W
HStem: 0 21G<383 427> 106 44<311 383 427 471> 662 20G<95 133>
VStem: 95 38<414 682> 383 44<0 106 150 313>
DStem: 293 313 338 313 262 106 311 150 356 555 412 555 20 153 76 153
Fore
66 606 m 1
 42 635 l 1
 95 682 l 1
 133 682 l 1
 133 414 l 1
 95 414 l 1
 96 631 l 1
 66 606 l 1
427 0 m 1
 383 0 l 1
 383 106 l 1
 262 106 l 9
 293 313 l 1
 338 313 l 1
 311 150 l 1
 383 150 l 1
 383 313 l 1
 427 313 l 1
 427 150 l 9
 471 150 l 17
 471 106 l 1
 427 106 l 1
 427 0 l 1
76 153 m 1
 20 153 l 1
 356 555 l 0
 412 555 l 1
 76 153 l 1
EndSplineSet
LCarets: 0 65535 '    ' 2 0 0 
Ligature: 0 1 'frac' one slash four
Ligature: 0 1 'frac' one fraction four
EndChar
StartChar: onehalf
Encoding: 189 189 35
Width: 458
Flags: W
HStem: 0 38<323 430> 237 38<344 346> 662 20G<95 133>
VStem: 95 38<414 682> 384 42<180 193>
DStem: 356 555 412 555 20 153 76 153
Fore
76 153 m 1
 20 153 l 1
 356 555 l 0
 412 555 l 1
 76 153 l 1
305 198 m 9
 268 214 l 17
 276 246 307 275 344 275 c 1
 381 275 426 246 426 180 c 1
 426 136 384 98 341 55 c 1
 323 38 l 1
 430 38 l 17
 430 0 l 1
 268 0 l 1
 268 38 l 1
 309 79 l 17
 341 111 384 142 384 180 c 0
 384 217 366 237 344 237 c 1
 324 237 311 221 305 198 c 9
66 606 m 1
 42 635 l 1
 95 682 l 1
 133 682 l 1
 133 414 l 1
 95 414 l 1
 96 631 l 1
 66 606 l 1
EndSplineSet
LCarets: 0 65535 '    ' 2 0 0 
Ligature: 0 1 'frac' one slash two
Ligature: 0 1 'frac' one fraction two
EndChar
StartChar: threequarters
Encoding: 190 190 36
Width: 517
Flags: W
HStem: 0 21G<403 447> 106 44<331 403 447 491> 412 39<93 99> 542 38<93 98> 662 38<93 99>
VStem: 138 39<612.521 626> 403 44<0 106 150 313>
DStem: 313 313 358 313 282 106 331 150 376 555 432 555 40 153 96 153
Fore
96 153 m 1
 40 153 l 1
 376 555 l 0
 432 555 l 1
 96 153 l 1
11 466 m 9
 47 478 l 17
 57 458 78 451 93 451 c 1
 119 451 142 469 142 494 c 1
 142 522 123 542 93 542 c 1
 90 542 87.75 542.25 85.625 542.25 c 0
 83.5 542.25 81.5 542 79 541 c 1
 79 581 l 1
 81.5 580 83.5 579.75 85.75 579.75 c 0
 88 579.75 90.5 580 94 580 c 1
 121 580 138 597 138 623 c 1
 138 644 120 662 93 662 c 1
 79 662 58 656 51 637 c 9
 18 656 l 17
 32 686 62 700 93 700 c 1
 141 700 177 665 177 623 c 1
 177 586 157 569 147 560 c 1
 158 550 180 532 180 494 c 1
 180 444 142 412 93 412 c 1
 63 412 26 432 11 466 c 9
447 0 m 1
 403 0 l 1
 403 106 l 1
 282 106 l 9
 313 313 l 1
 358 313 l 1
 331 150 l 1
 403 150 l 1
 403 313 l 1
 447 313 l 1
 447 150 l 9
 491 150 l 17
 491 106 l 1
 447 106 l 1
 447 0 l 1
EndSplineSet
LCarets: 0 65535 '    ' 2 0 0 
Ligature: 0 1 'frac' three slash four
Ligature: 0 1 'frac' three fraction four
EndChar
StartChar: AE
Encoding: 198 198 37
Width: 643
Flags: W
HStem: 0 0<616 618> 0 96<444 618> 303 95<273 348 444 617> 586 96<277 617>
VStem: 348 96<0 302 398 586>
DStem: 278 682 347 588 13 0 273 398 278 682 241 303 13 0 123 0
Fore
348 303 m 1
 241 303 l 0
 123 0 l 0
 13 0 l 1
 278 682 l 1
 277.945 682 l 0
 617 682 l 1
 617 586 l 0
 444 586 l 0
 444 398 l 1
 617 398 l 1
 617 302 l 0
 444 302 l 0
 444 96 l 0
 617 96 l 0
 617 0 l 1
 618.062 0 l 0
 348 0 l 1
 348 303 l 1
348 554 m 1
 347 588 l 1
 273 398 l 1
 348 398 l 1
 348 554 l 1
EndSplineSet
EndChar
StartChar: Eth
Encoding: 208 208 46
Width: 617
Flags: W
HStem: 0 21G<127 223> 300 96<26 127 224 361> 588 94<223 250.336>
VStem: 127 98<0 300 396 588> 506 90<350 368>
Fore
127 300 m 1
 26 300 l 1
 26 396 l 1
 127 396 l 1
 127 682 l 1
 223 682 l 1
 455 682 596 524 596 350 c 1
 596 91.0475 400.994 -0.493947 243.001 -0.493947 c 0
 236.261 -0.493947 229.588 -0.327334 223 0 c 1
 127 0 l 1
 127 300 l 1
225 300 m 1
 225 94 l 1
 393 94 506 226 506 350 c 1
 506 454 403 588 224 588 c 1
 224 396 l 1
 361 396 l 1
 361 300 l 1
 225 300 l 1
EndSplineSet
EndChar
StartChar: multiply
Encoding: 215 215 52
Width: 377
Flags: W
DStem: 18 397 89 467 118 297 188 368 118 297 187 230 16 196 84 128 187 230 258 301 287 131 357 201 291 470 359 402 188 368 258 301
Fore
16 196 m 1
 16 196 l 1
 118 297 l 1
 18 397 l 1
 89 467 l 1
 188 368 l 1
 291 470 l 1
 359 402 l 1
 258 301 l 1
 357 201 l 1
 287 131 l 1
 187 230 l 1
 84 128 l 1
 16 196 l 1
EndSplineSet
EndChar
StartChar: Oslash
Encoding: 216 216 53
Width: 565
Flags: W
HStem: -14 96<284 288> 604 96<285 287>
VStem: 14 96<350 378> 452 96<350 357>
DStem: 345 590 426 494 151 172 238 90
Fore
197 1 m 1
 186 -23 l 1
 60 -23 l 1
 103 69 l 1
 41 142 14 251 14 350 c 1
 14 500 90 700 285 700 c 1
 324 700 357 692 386 679 c 1
 396 700 l 0
 522 700 l 1
 477 603 l 1
 528 532 548 433 548 350 c 1
 548 180 480 -14 284 -14 c 1
 252 -14 223 -9 197 1 c 1
238 90 m 1
 252 85 268 82 284 82 c 1
 400 82 452 230 452 350 c 1
 452.055 352.595 452.083 355.206 452.083 357.829 c 0
 452.083 402.721 443.951 451.485 426 494 c 1
 238 90 l 1
151 172 m 1
 345 590 l 1
 327 599 307 604 285 604 c 1
 160 604 110 462 110 350 c 1
 110 290 123 224 151 172 c 1
EndSplineSet
EndChar
StartChar: Thorn
Encoding: 222 222 57
Width: 481
Flags: W
HStem: 0 21G<26 127> 158 92<127 171.188> 459 81<122 162.636>
VStem: 26 96<0 682> 366 96<337.365 355>
Fore
127 250 m 1
 254 252 366 258 366 352 c 1
 366 448 230 459 127 459 c 1
 127 250 l 1
26 681 m 0
 123 682 l 1
 122 540 l 1
 298 540 462 484 462 352 c 0
 462 190 296 158 127 158 c 1
 127 158.226 l 0
 127 0 l 1
 26 0 l 1
 26 681 l 0
EndSplineSet
EndChar
StartChar: germandbls
Encoding: 223 223 58
Width: 511
Flags: W
HStem: -14 96<276 285> 309 93<278 295.266> 606 95<277 285>
VStem: 389 97<509 522> 398 96<189 195>
Fore
51 546 m 1xf0
 87 620 156 701 277 701 c 1
 395 701 486 613 486 509 c 1xf0
 486 417 436 375 411 353 c 1
 439 329 494 283 494 189 c 1
 494 65 398 -14 276 -14 c 1
 245 -14 220 -5 188 11 c 9
 231 99 l 17
 247 93 262 82 276 82 c 1
 341 82 398 128 398 189 c 1xe8
 398 260 352 309 278 309 c 1
 271.333 309 266.049 309.395 261.007 309.395 c 0
 254.704 309.395 248.778 308.778 241 306 c 1
 241 404 l 1
 247.5 402 252.75 401.5 258.375 401.5 c 0
 264 401.5 270 402 278 402 c 1
 346 402 389 446 389 509 c 1
 389 563 344 606 277 606 c 1
 201 606 166 570 150 522 c 1
 126 450 117 147 108 0 c 1
 12 0 l 1
 27 171 30 498 51 546 c 1xf0
EndSplineSet
EndChar
StartChar: ae
Encoding: 230 230 63
Width: 696
Flags: W
HStem: -14 96<178 196> 0 95<478 484> 184 96<387 673> 359 97<478 484>
VStem: 19 95<145 164>
Fore
668 280 m 0
387 280 m 0,0,-1
 570 280 l 0,1,2
 557 320 535 359 478 359 c 1,3,4
 423 359 397 320 387 280 c 0,0,-1
114 160 m 1,11,12
 114 106 145 82 184 82 c 0,13,14
 231 82 278 126 278 254 c 0,15,16
 278 279.793 284.331 314.794 284.331 335.428 c 0,0,0
 284.331 341.993 283.69 347.103 282 350 c 1,17,18
 231 321 114 252 114 160 c 1,11,12
456 455 m 2,0,0
 463 456 471 456 478 456 c 1,16,17
 597 456 649 366 668 280 c 0,18,19
 672.316 262.736 673.139 246.927 673.139 230.218 c 0,0,0
 673.139 219.912 672.826 209.264 672.826 197.721 c 0,0,0
 672.826 193.29 672.872 188.726 673 184 c 1,20,-1
 383 184 l 0,5,6
 401 109 445 95 478 95 c 0,7,8
 509 95 542 117 562 138 c 9,9,-1
 629 69 l 1,10,11
 601 40 565 0 478 0 c 1,12,13
 475 0 473 0 470 0 c 2,0,0
 470 0 l 1,9,-1
 470 0 l 2,0,0
 405 3 361 34 328 81 c 1,0,0
 302 34 252 -14 185 -14 c 1,2,3
 57 -14 19 56 19 162 c 0,4,5
 19 306 152 409 247 438 c 0,6,7
 294 453 420 456 457 456 c 1,8,-1
 456 455 l 2,0,0
EndSplineSet
EndChar
StartChar: igrave
Encoding: 236 236 68
Width: 266
Flags: W
HStem: -15 92<202 238> 416 20G<38 134> 529 119<-53 144>
VStem: 39 95<128 436>
DStem: -53 648 61 648 29 529 144 529
Fore
39 132 m 1
 38 436 l 1
 134 436 l 0
 134 134 l 0
 134 83 180 77 202 77 c 1
 238 77 l 1
 238 -15 l 1
 202 -15 l 1
 102 -15 39 53 39 132 c 1
EndSplineSet
Ref: 96 96 S 1 0 0 1 -76 -80
LCarets: 0 65535 '    ' 1 0 
Ligature: 0 0 'liga' i gravecomb
EndChar
StartChar: iacute
Encoding: 237 237 69
Width: 266
Flags: W
HStem: -15 92<202 238> 416 20G<38 134>
VStem: 39 95<128 436>
DStem: 111 646 225 646 28 527 143 527
Fore
39 132 m 1
 38 436 l 1
 134 436 l 0
 134 134 l 0
 134 83 180 77 202 77 c 1
 238 77 l 1
 238 -15 l 1
 202 -15 l 1
 102 -15 39 53 39 132 c 1
EndSplineSet
Ref: 180 180 S 1 0 0 1 4 -82
LCarets: 0 65535 '    ' 1 0 
Ligature: 0 0 'liga' i acutecomb
EndChar
StartChar: icircumflex
Encoding: 238 238 70
Width: 434
Flags: W
HStem: -15 92<332 368> 416 20G<168 264> 664 20<163 266>
VStem: 169 95<128 436>
DStem: 163 684 216 611 14 524 139 524 216 611 266 684 297 521 418 521
Fore
169 132 m 1
 168 436 l 1
 264 436 l 0
 264 134 l 0
 264 83 310 77 332 77 c 1
 368 77 l 1
 368 -15 l 1
 332 -15 l 1
 232 -15 169 53 169 132 c 1
EndSplineSet
Ref: 94 94 N 1 0 0 1 -2 -15
LCarets: 0 65535 '    ' 1 0 
Ligature: 0 0 'liga' i uni0302
EndChar
StartChar: idieresis
Encoding: 239 239 71
Width: 266
Flags: W
HStem: -15 92<202 238> 416 20G<38 134> 617 20<-55.5 -20.5 175.5 210.5>
VStem: -102 127<562.815 577> 39 95<128 436> 130 126<562.671 577>
Fore
39 132 m 1xf8
 38 436 l 1
 134 436 l 0
 134 134 l 0
 134 83 180 77 202 77 c 1
 238 77 l 1
 238 -15 l 1
 202 -15 l 1
 102 -15 39 53 39 132 c 1xf8
EndSplineSet
Ref: 168 168 S 1 0 0 1 -116 166
LCarets: 0 65535 '    ' 1 0 
Ligature: 0 0 'liga' i uni0308
EndChar
StartChar: eth
Encoding: 240 240 72
Width: 443
Flags: W
HStem: -14 96<199 226> 345 97<190 201>
VStem: 17 95<193 232> 318 97<195.541 227>
Fore
112 213 m 0
 112 100 177 82 215 82 c 0
 270 82 318 144 318 213 c 1
 318 266 266 330 196 345 c 1
 142 345 112 286 112 213 c 0
327 587 m 1
 375 523 415 458 415 381 c 1
 415 230 l 1
 416 147 l 1
 416 72 305 -14 220 -14 c 0
 72 -14 17 90 17 215 c 0
 17 341 96 442 201 442 c 0
 240 442 282 420 319 387 c 1
 314 432 308 488 262 529 c 1
 192 467 l 1
 128 539 l 1
 177 583 l 1
 150.926 591.691 124.517 594.675 98.5499 594.675 c 0
 79.701 594.675 61.0852 593.103 43 591 c 1
 53 682 l 1
 66.4884 682.793 79.9767 683.272 93.4339 683.272 c 0
 147.819 683.272 201.695 675.454 253 649 c 1
 329 717 l 1
 393 645 l 1
 327 587 l 1
EndSplineSet
EndChar
StartChar: divide
Encoding: 247 247 78
Width: 424
Flags: W
HStem: 73 127<202.815 219> 254 96<26 401> 404 127<202.815 219>
VStem: 151 126<124.671 139 468 474>
CounterMasks: 1 00
Fore
151 136 m 0
 151 171 179 200 214 200 c 0
 249 200 277 171 277 136 c 0
 277 101 249 73 214 73 c 0
 179 73 151 101 151 136 c 0
151 468 m 0
 151 503 179 531 214 531 c 0
 249 531 277 503 277 468 c 0
 277 433 249 404 214 404 c 0
 179 404 151 433 151 468 c 0
26 350 m 1
 26 350 l 1
 401 350 l 1
 401 254 l 1
 26 254 l 1
 26 350 l 1
EndSplineSet
EndChar
StartChar: oslash
Encoding: 248 248 79
Width: 488
Flags: W
HStem: -14 96<230.781 263> 346 96<230.614 263>
VStem: 19 96<214 223> 379 96<214 223>
DStem: 294 338 365 273 123 167 188 96
Fore
365 273 m 1
 188 96 l 1
 206 87 226 82 247 82 c 0
 320 82 379 141 379 214 c 0
 379 235 374 255 365 273 c 1
118 26 m 1
 74 -18 l 1
 6 50 l 1
 52 96 l 1
 31 130 19 171 19 214 c 0
 19 340 121 442 247 442 c 0
 290 442 331 430 365 409 c 1
 409 453 l 1
 477 385 l 1
 435 343 l 1
 460 306 475 262 475 214 c 0
 475 88 373 -14 247 -14 c 0
 199 -14 155 1 118 26 c 1
294 338 m 1
 279 343 263 346 247 346 c 0
 174 346 115 287 115 214 c 0
 115 198 118 182 123 167 c 1
 294 338 l 1
EndSplineSet
EndChar
StartChar: thorn
Encoding: 254 254 83
Width: 445
Flags: W
HStem: -14 96<217 242> 345 97<240 251>
VStem: 26 96<-206 24 42 227 230 633> 329 95<193 232>
Fore
122 -206 m 17
 26 -206 l 1
 26 42 l 1
 26 230 l 1
 26 633 l 1
 122 633 l 1
 122 387 l 17
 159 420 201 442 240 442 c 0
 345 442 424 341 424 215 c 0
 424 90 369 -14 221 -14 c 1
 190 -14 122 24 122 24 c 0
 122 24 122 -116 122 -206 c 17
329 213 m 0
 329 286 299 345 245 345 c 1
 175 330 123 266 123 213 c 1
 123 144 171 82 226 82 c 0
 264 82 329 100 329 213 c 0
EndSplineSet
EndChar
